<svg width="35vw" height="35vw" viewBox="0 0 653 485" fill="none" xmlns="http://www.w3.org/2000/svg">
<path d="M29.4799 394.148C29.4799 394.148 -48.6161 442.916 51.3919 447.361C151.4 451.806 90.0559 494.656 232.136 471.745C374.216 448.834 509.384 494.173 509.456 446.624C509.456 446.624 598.208 476.241 603.44 439.233C603.44 439.233 672.296 456.098 646.592 427.346C620.888 398.593 135.2 311.547 87.5839 342.865C39.9679 374.183 11.6719 375.199 29.4799 394.148Z" fill="#8CB7EA"/>
<path d="M14.1386 357.938C14.1626 358.065 14.1866 358.167 14.2106 358.294L24.2186 358.269L179.547 357.761L282.051 357.43H285.171L292.395 357.405L386.163 357.1L602.211 356.389L610.155 356.364L615.651 356.338H618.819H620.211C620.211 356.338 620.427 355.983 620.811 355.271C620.835 355.195 620.883 355.144 620.931 355.068C621.075 354.814 621.219 354.509 621.411 354.179C622.419 352.223 624.003 349.023 625.899 344.781C626.379 343.689 626.883 342.495 627.411 341.276C627.819 340.285 628.251 339.269 628.659 338.177C628.803 337.822 628.947 337.466 629.091 337.085C629.235 336.704 629.379 336.323 629.547 335.942C630.339 333.91 631.131 331.726 631.923 329.44C632.715 327.179 633.507 324.817 634.275 322.353C634.299 322.302 634.299 322.251 634.323 322.201C634.755 320.804 635.163 319.381 635.595 317.933C636.195 315.8 636.795 313.615 637.371 311.355C637.923 309.196 638.427 306.986 638.931 304.725C639.795 300.712 640.563 296.547 641.211 292.229C642.483 283.567 643.227 274.347 643.083 264.822C642.963 255.983 642.075 246.864 640.203 237.619C635.499 214.53 624.507 190.756 603.171 169.013C524.739 89.0287 457.299 133.352 423.075 131.117C416.931 130.71 411.555 128.145 406.251 124.055C396.555 116.562 387.171 104.015 374.067 90.5527C354.435 70.3597 326.475 48.1094 276.627 37.6954C214.947 24.8176 130.227 28.4244 93.5786 67.1085C71.4026 90.5019 66.8186 126.748 95.5706 179.935C97.3226 183.161 99.1946 186.463 101.187 189.816C102.867 192.635 104.331 195.328 105.579 197.919C108.747 204.37 110.619 210.085 111.411 215.165C113.307 227.357 108.939 236.018 101.139 243.105C98.8826 245.162 96.3626 247.067 93.6026 248.922C84.4826 255.018 72.9386 260.275 61.4426 266.397C55.1066 269.8 48.7706 273.458 42.8426 277.7C37.3466 281.637 32.2106 286.082 27.7706 291.238C24.8666 294.616 22.2746 298.299 20.0426 302.363C19.9226 302.592 19.8026 302.82 19.6826 303.049C16.8266 308.459 14.6426 314.53 13.3466 321.413C13.2746 321.769 13.2266 322.124 13.1546 322.48C11.4266 332.437 11.5466 344.121 14.1386 357.938Z" fill="#FFEDC5"/>
<path d="M15.68 417.49L181.04 416.957L283.544 416.627H286.664L293.888 416.601C359.792 377.892 379.88 337.303 379.88 337.303C377.528 336.668 208.856 299.888 95.072 308.093C85.952 314.189 74.408 319.446 62.912 325.568C56.576 328.971 50.24 332.629 44.312 336.871C23.216 351.984 7.49597 374.386 15.68 417.49Z" fill="#E1EFFF"/>
<path d="M15.68 417.49L621.728 415.509C621.728 415.509 654.224 358.588 641.648 296.764C634.184 302.124 625.712 306.01 620.336 301.59C613.544 296.002 594.128 279.695 579.416 267.326C569.288 258.817 561.416 252.162 561.416 252.162C561.416 252.162 553.16 243.754 547.736 246.091C545.24 247.183 542.792 249.774 540.656 252.162C540.632 252.187 540.632 252.187 540.632 252.187C538.16 254.956 536.048 257.394 534.704 256.861C533.48 256.378 524.408 246.548 513.848 235.652C502.64 224.044 489.752 211.217 482.864 207.051C482.864 207.051 476.456 200.117 469.52 208.067C465.968 212.131 460.472 222.545 454.352 235.068C440.24 263.947 422.696 304.029 417.368 303.495C409.736 302.733 397.856 284.775 390.656 282.972C383.456 281.169 350.624 343.983 336.632 346.675C322.64 349.368 295.928 326.482 274.304 333.213C252.68 339.944 217.688 377.638 185.24 370.907C159.272 365.522 100.568 335.144 62.936 325.517C33.944 341.062 5.19198 362.296 15.68 417.49Z" fill="#D9E9FC"/>
<path d="M14.8161 380.584L15.9441 380.178C17.1201 379.797 19.0401 379.365 20.8641 379.644C22.7601 379.949 25.9521 382.413 27.8961 384.064C26.9841 382.438 26.1681 380.406 25.9521 378.197C25.4481 372.812 27.4401 366.741 30.6081 370.754C32.9121 373.65 31.8801 381.321 31.1361 385.334C32.3601 385.842 33.6081 386.401 34.8321 387.01C36.3441 381.346 38.5281 374.59 41.5281 368.011C42.9441 364.862 71.3601 370.5 83.4081 377.993C102.608 389.906 162.296 377.917 180.968 381.041C199.616 384.191 235.424 398.847 270.2 388.992C304.976 379.136 419.48 372.837 452.96 366.563C482.432 361.026 588.656 328.54 644.504 324.044C644.648 333.594 643.904 342.789 642.632 351.45C637.16 388.509 621.704 415.585 621.704 415.585L181.016 417.008L102.296 416.22L15.2721 415.357C12.9201 401.793 12.9681 390.363 14.8161 380.584Z" fill="#8CB7EA"/>
<path d="M15.392 415.89L102.32 416.17L181.04 416.957L283.544 416.627H286.664L293.888 416.601L387.656 416.297L621.728 415.535C621.728 415.535 637.184 388.484 642.656 351.4C598.184 355.464 510.056 364.303 404.696 378.374C253.304 398.567 174.392 411.902 92.12 384.928C76.952 379.949 63.8 375.479 52.28 371.567C48.536 370.297 44.96 369.103 41.552 367.96C38.168 366.843 34.976 365.776 31.88 364.785C28.4 363.668 24.752 362.347 21.608 361.382C21.392 361.763 21.32 361.915 21.152 362.22C18.296 367.63 16.112 373.701 14.816 380.584C12.968 390.363 13.04 402.377 15.392 415.89Z" fill="#B4D5EF"/>
<path d="M15.392 415.89L181.04 416.957L283.544 416.627H286.664L293.888 416.601L387.656 416.297L621.848 415.306C621.848 415.306 622.16 414.773 622.904 413.35C623.912 411.394 625.496 408.194 627.392 403.952C602.432 394.732 554.408 364.201 511.712 378.679C448.088 400.244 196.04 415.433 150.872 406.67C105.704 397.907 64.664 387.087 48.296 403.165C43.832 407.508 18.872 395.646 15.392 415.89Z" fill="#AFD295"/>
<path d="M97.016 239.132L443.432 301.463L468.296 269.916L95.024 126.305C72.848 149.698 68.264 185.944 97.016 239.132Z" fill="#F9EFDC"/>
<path d="M622.424 414.239C622.568 413.985 622.712 413.68 622.904 413.35C623.912 411.394 625.496 408.194 627.392 403.952C627.872 402.86 628.376 401.666 628.904 400.447C629.312 399.456 629.744 398.44 630.152 397.348C630.296 396.993 630.44 396.637 630.584 396.256C630.728 395.875 630.872 395.494 631.04 395.113C620.264 368.392 596.024 315.154 573.368 321.783C551.024 328.336 597.536 385.715 622.424 414.239Z" fill="#82B378"/>
<path d="M637.064 377.104C637.664 374.971 638.264 372.786 638.84 370.526C639.392 368.367 639.896 366.157 640.376 363.896C635.912 339.944 628.64 310.709 619.856 311.801C609.44 313.046 626.192 353.305 637.064 377.104Z" fill="#82B378"/>
<path d="M552.416 391.735C559.952 395.977 581.72 406.645 600.248 415.585L610.04 415.56L616.832 415.535C601.04 399.964 573.392 377.231 549.152 377.485C546.848 377.511 544.808 379.263 544.448 381.676C544.04 384.242 545.408 387.772 552.416 391.735Z" fill="#82B378"/>
<path d="M454.328 235.093C457.688 236.236 462.344 236.846 462.944 232.07C463.784 225.111 482.672 238.573 492.416 241.494C502.16 244.415 496.664 232.528 496.88 229.149C497 227.092 506.48 231.74 513.848 235.677C502.64 224.069 489.752 211.242 482.864 207.077C482.864 207.077 476.456 200.143 469.52 208.093C465.92 212.182 460.448 222.596 454.328 235.093Z" fill="#F8FBFF"/>
<path d="M540.632 252.213C540.848 252.009 542.672 250.435 545.984 252.238C549.512 254.168 554.192 255.21 556.304 254.524C558.416 253.838 579.416 267.351 579.416 267.351C569.288 258.842 561.416 252.187 561.416 252.187C561.416 252.187 553.16 243.78 547.736 246.117C545.216 247.234 542.768 249.825 540.632 252.213Z" fill="#F8FBFF"/>
<path d="M227.144 120.183L407.696 183.226C398 175.733 388.616 163.186 375.512 149.724L227.144 120.183Z" fill="#F8FBFF"/>
<path d="M232.712 141.215C237.104 141.215 240.656 144.974 240.656 149.622C240.656 154.27 237.104 158.029 232.712 158.029C228.32 158.029 224.768 154.27 224.768 149.622C224.768 144.974 228.32 141.215 232.712 141.215Z" fill="#F8FBFF"/>
<path d="M407.144 159.122C407.144 159.122 395.888 152.848 379.784 151.603C371.144 150.943 363.152 156.582 360.44 165.294C360.272 165.802 360.128 166.31 359.984 166.869C356.192 181.27 358.256 224.908 371 236.287C383.744 247.666 407.144 242.865 407.144 242.865V159.122Z" fill="#233862"/>
<path d="M387.392 139.716L414.776 144.618L412.688 154.6L387.584 160.874L387.392 139.716Z" fill="#82B378"/>
<path d="M486.272 202.505C485.048 201.565 483.92 204.943 482.384 204.816C482.024 204.791 483.92 202.81 484.376 202.124C484.832 201.438 484.736 201.057 484.4 200.854C484.064 200.651 479.696 203.165 478.808 204.207C478.256 204.842 477.08 207.153 476.24 208.855C476.24 208.829 476.24 208.829 476.24 208.829C476.24 208.829 451.4 210.785 446.384 210.328C442.736 210.023 440.96 182.82 440.672 182.871C435.944 183.709 426.728 185.741 421.04 189.83C420.824 190.033 420.608 190.11 420.344 190.186C422.504 198.593 425.744 208.499 430.448 217.694C433.52 223.714 439.616 227.244 446.072 226.736C454.736 226.025 467.48 223.663 478.352 216.348C478.352 216.348 483.968 213.325 486.584 210.887C490.16 207.534 487.52 203.419 486.272 202.505Z" fill="#FFD8BD"/>
<path d="M442.568 256.556C442.568 256.556 440.888 278.832 439.28 300.498C437.096 329.937 428.792 403.317 428.792 403.317C428.792 403.317 430.544 406.238 422 404.333C422 404.333 411.536 379.34 409.352 350.587C409.328 350.104 409.28 349.647 409.256 349.164C407.24 319.904 404.096 258.283 404.096 258.283L442.568 256.556Z" fill="#F99F46"/>
<path opacity="0.4" d="M442.712 254.549C442.712 254.549 440.888 278.806 439.28 300.498L409.352 350.587C409.328 350.104 409.28 349.647 409.256 349.164C407.24 319.904 404.096 258.283 404.096 258.283L442.712 254.549Z" fill="#C9833D"/>
<path d="M440.96 255.769L371.192 396.307C371.192 396.307 364.688 399.38 363.848 396.713C363.848 396.713 370.04 332.324 380.888 317.872C387.008 309.718 394.208 285.207 394.544 276.647C394.88 268.088 396.8 249.977 396.8 249.977L440.96 255.769Z" fill="#F99F46"/>
<path d="M383.048 416.119C383.048 416.119 372.92 416.271 369.992 413.223C369.656 412.868 368.528 409.261 368.528 409.236C368.432 408.956 367.928 407.635 365.84 406.899C364.472 406.416 363.32 406.416 362 405.883C361.016 405.476 359.144 404.511 358.232 403.952C355.088 402.022 355.808 400.98 355.808 400.98C355.808 400.98 356.504 400.32 357.416 399.355C357.656 399.101 357.92 398.796 358.184 398.491C359.552 396.967 361.064 395.037 361.448 393.665C361.784 392.497 362.384 391.735 362.984 391.252C363.728 390.643 364.424 390.465 364.424 390.465C364.424 390.465 365.528 395.164 367.712 394.58C371.936 393.437 372.728 393.589 372.872 393.64L372.896 393.665C372.896 393.665 376.352 400.752 377.312 403.292C379.016 407.813 381.224 409.515 382.616 410.988C382.976 411.369 383.216 411.776 383.408 412.207C384.128 413.909 383.6 415.789 383.048 416.119Z" fill="#233862"/>
<path d="M383.048 416.119C383.048 416.119 372.92 416.271 369.992 413.223C369.656 412.868 368.528 409.261 368.528 409.235C368.432 408.956 367.928 407.635 365.84 406.899C364.472 406.416 363.32 406.416 362 405.883C361.016 405.476 359.144 404.511 358.232 403.952C355.088 402.022 355.808 400.98 355.808 400.98C355.808 400.98 356.504 400.32 357.416 399.355C357.656 399.101 357.92 398.796 358.184 398.491C358.52 399.863 359.432 402.276 361.856 403.292C365.312 404.714 369.032 407.153 370.112 409.108C371.192 411.064 371.912 412.842 374.024 413.579C376.136 414.315 381.632 414.519 382.016 414.315C382.328 414.163 382.616 412.715 383.408 412.182C384.128 413.909 383.6 415.789 383.048 416.119Z" fill="#FBB667"/>
<path d="M420.8 416.144H424.976C426.368 415.916 427.424 415.484 428.864 415.281C431.048 414.976 432.056 415.916 432.248 416.144C432.272 416.17 432.296 416.195 432.296 416.195H450.08C450.536 415.509 450.104 413.96 449.672 412.791C449.384 412.004 448.76 411.42 448.016 411.191C446.12 410.607 442.424 410.099 439.016 406.848C437.096 405.019 429.776 400.117 429.776 400.117H429.728C429.56 400.117 428.792 400.371 425.456 403.343C423.728 404.892 420.8 401.158 420.8 401.158C420.8 401.158 420.248 401.641 419.84 402.53C419.504 403.241 419.264 404.206 419.456 405.425C419.72 407.127 418.856 410.277 418.184 412.41C417.776 413.706 417.416 414.62 417.416 414.62C417.416 414.62 417.2 415.662 420.8 416.144Z" fill="#233862"/>
<path d="M420.8 416.195H424.976C426.368 415.966 427.424 415.458 428.864 415.281C431.048 414.976 432.056 415.916 432.248 416.144C432.272 416.17 432.296 416.195 432.296 416.195H450.08C450.536 415.509 450.104 413.96 449.672 412.791C449.12 412.283 448.976 415.001 448.688 415.433C448.4 415.865 434.168 415.585 433.352 414.95C432.536 414.315 430.064 413.223 426.632 414.087C423.656 414.849 419.24 412.893 418.16 412.385C417.752 413.68 417.392 414.595 417.392 414.595C417.392 414.595 417.2 415.738 420.8 416.195Z" fill="#FBB667"/>
<path d="M404.456 156.607C404.456 156.607 421.112 165.294 430.76 162.068C430.76 162.068 428.384 158.868 424.256 156.455C424.496 154.981 424.688 153.61 424.832 152.416C425.36 148.047 425.384 145.558 425.384 145.558L415.16 136.846L412.88 134.89C412.952 136.947 412.832 138.878 412.568 140.63C412.544 140.757 412.52 140.91 412.496 141.037C410.84 151.527 404.456 156.607 404.456 156.607Z" fill="#FBB667"/>
<path d="M394.928 248.936C394.88 250.054 397.064 251.298 398.024 251.755C402.248 253.762 406.28 255.388 410.432 256.556C413.336 257.369 416.264 257.953 419.36 258.258C428.288 259.223 438.824 257.089 442.448 257.14C442.832 257.14 443.168 256.988 443.456 256.734C443.696 256.531 443.888 244.999 443.696 230.445C443.696 229.886 443.696 229.276 443.648 228.718V228.514C443.6 222.85 443.408 216.881 443.168 210.963C442.64 197.907 441.68 185.284 440.024 178.299C438.104 170.094 433.664 164.684 429.608 160.696L426.728 157.674C426.536 157.496 426.296 157.394 426.032 157.445C422.816 158.08 419.288 158.029 415.904 156.251C412.088 154.27 407.936 152.111 407.264 152.619C399.344 158.868 395.408 177.359 395.504 198.365C395.504 199.025 395.504 199.685 395.528 200.371C395.552 202.53 395.648 204.74 395.744 206.95C396.608 222.444 395.72 235.88 395.216 243.704C395.096 245.913 394.976 247.717 394.928 248.936Z" fill="#FBB667"/>
<path d="M394.928 248.936C394.88 250.054 397.064 251.298 398.024 251.755C402.248 253.762 406.28 255.388 410.432 256.556C421.928 217.211 408.152 179.086 408.152 179.086L395.528 200.371C395.552 202.53 395.648 204.74 395.744 206.95C396.608 222.444 395.72 235.88 395.216 243.704C395.096 245.913 394.976 247.717 394.928 248.936Z" fill="#FBB667"/>
<path d="M412.64 185.207C408.512 182.617 400.232 177.918 393.392 177.181C391.904 177.029 390.968 175.352 391.568 173.904C393.728 168.672 399.848 157.725 407.288 152.645C407.984 152.162 408.512 152.594 409.232 153.026C411.968 154.651 417.896 159.477 418.256 165.167C418.568 170.221 416.936 178.984 415.952 183.709C415.616 185.233 413.936 186.02 412.64 185.207Z" fill="#FBB667"/>
<path d="M412.4 140.884C412.4 140.884 412.424 140.935 412.472 141.037C413.12 142.256 417.512 150.13 424.784 152.391C425.312 148.022 425.336 145.533 425.336 145.533L415.112 136.82C413.768 138.497 412.856 140.021 412.52 140.605C412.448 140.808 412.4 140.884 412.4 140.884Z" fill="#FFD8BD"/>
<path d="M428.312 145.304C428.312 145.304 412.4 148.098 410.912 137.582C409.424 127.067 406.352 120.361 416.456 118.126C426.56 115.891 429.104 119.599 430.4 122.977C431.696 126.356 432.416 144.313 428.312 145.304Z" fill="#FBB667"/>
<path d="M432.872 116.907C429.56 115.307 413.48 107.229 406.592 114.595C406.472 113.478 406.496 112.132 406.496 112.132C405.992 113.097 405.776 114.494 405.68 115.51C405.056 114.722 403.928 114.595 403.928 114.595C404.744 115.002 405.08 115.789 405.224 116.45C398.384 127.194 408.776 138.141 410.192 139.843C411.656 141.596 412.496 141.088 412.496 141.088C412.496 141.088 415.088 137.379 413.84 134.915C413.84 134.915 411.728 132.655 412.952 131.232C414.176 129.81 414.872 131.969 415.832 131.918C416.792 131.842 418.52 128.87 418.64 126.152C418.76 123.435 428 127.575 431.72 126.279C435.416 124.984 438.68 119.726 432.872 116.907Z" fill="#2C3A64"/>
<path d="M395.192 209.82L394.688 206.62C402.056 205.35 408.032 201.59 412.424 195.469C415.736 190.846 418.064 184.776 418.832 178.832C420.296 167.326 417.44 160.773 410.072 158.791C403.496 157.039 395.888 162.474 395.792 162.525L394.04 159.858C394.4 159.604 402.848 153.508 410.816 155.642C417.008 157.293 423.968 162.754 421.856 179.264C421.376 183.074 419.816 190.491 414.848 197.425C409.976 204.257 403.352 208.423 395.192 209.82Z" fill="#233862"/>
<path d="M385.16 161.23C390.555 161.23 394.928 156.351 394.928 150.333C394.928 144.315 390.555 139.437 385.16 139.437C379.765 139.437 375.392 144.315 375.392 150.333C375.392 156.351 379.765 161.23 385.16 161.23Z" fill="#AFD295"/>
<path d="M378.224 150.613C378.224 145.38 382.232 141.138 387.176 141.138C387.392 141.138 387.608 141.138 387.824 141.164C387.08 140.961 386.312 140.834 385.496 140.834C380.552 140.834 376.544 145.075 376.544 150.308C376.544 155.312 380.216 159.401 384.848 159.757C381.056 158.69 378.224 155.007 378.224 150.613Z" fill="#82B378"/>
<path d="M484.664 197.349H482.096V385.08H484.664V197.349Z" fill="#C0783D"/>
<path d="M484.112 219.497H482.624C481.712 219.497 480.992 218.71 480.992 217.77V197.069C480.992 196.104 481.736 195.342 482.624 195.342H484.112C485.024 195.342 485.744 196.129 485.744 197.069V217.77C485.768 218.71 485.024 219.497 484.112 219.497Z" fill="#233862"/>
<path d="M485.888 386.248H480.824C480.128 386.248 479.552 385.639 479.552 384.902C479.552 384.166 480.128 383.556 480.824 383.556H485.888C486.584 383.556 487.16 384.166 487.16 384.902C487.184 385.639 486.608 386.248 485.888 386.248Z" fill="#233862"/>
<path d="M483.392 391.455C482.936 391.455 482.552 391.1 482.504 390.617L482.096 386.248H484.664L484.28 390.617C484.208 391.1 483.848 391.455 483.392 391.455Z" fill="#C0783D"/>
<path d="M440.029 224.33L438.002 222.661L329.071 370.818L331.097 372.487L440.029 224.33Z" fill="#C0783D"/>
<path d="M426.776 241.468L425.6 240.503C424.88 239.919 424.76 238.827 425.312 238.065L437.312 221.733C437.864 220.971 438.896 220.844 439.616 221.428L440.792 222.393C441.512 222.977 441.632 224.069 441.08 224.831L429.08 241.164C428.528 241.926 427.496 242.053 426.776 241.468Z" fill="#233862"/>
<path d="M331.424 374.234L327.44 370.958C326.888 370.5 326.792 369.662 327.224 369.053C327.656 368.468 328.448 368.367 329.024 368.824L333.008 372.101C333.56 372.558 333.656 373.396 333.224 374.005C332.792 374.59 331.976 374.691 331.424 374.234Z" fill="#233862"/>
<path d="M326.408 376.723C326.048 376.419 325.952 375.885 326.192 375.479L328.4 371.77L330.44 373.447L327.584 376.647C327.296 376.977 326.768 377.003 326.408 376.723Z" fill="#C0783D"/>
<path d="M437.816 231.918C437.528 230.724 434.336 231.181 432.344 230.953C431.624 230.877 431.288 229.988 431.72 229.403L432.704 228.032C431.24 227.727 429.536 227.473 428.84 227.549C428.048 227.651 425.72 228.616 424.064 229.353C424.064 229.327 424.064 229.327 424.064 229.327C424.064 229.327 403.88 213.884 400.304 210.099C397.712 207.382 412.904 185.36 412.664 185.207C408.536 182.617 400.232 177.892 393.416 177.156C393.128 177.156 392.912 177.079 392.672 176.978C389.216 184.903 385.664 194.682 383.672 204.918C382.376 211.598 384.872 218.481 390.104 222.469C397.16 227.829 408.368 234.712 421.112 236.541C421.112 236.541 427.952 239.335 431.456 239.259C436.184 239.106 438.176 233.493 437.816 231.918Z" fill="#FBB667"/>
<path d="M479.912 203.267C479.912 203.267 483.128 200.473 484.4 203.724C485.288 205.985 484.04 207.737 483.2 208.575C482.768 209.007 482.048 208.88 481.784 208.296C481.616 207.89 481.52 207.28 481.712 206.442L478.76 213.198L479.912 203.267Z" fill="#FFD8BD"/>
<path d="M485.768 202.327C485.768 202.327 483.824 202.225 483.632 205.705C483.44 209.185 483.056 214.138 485.84 211.471C488.624 208.829 485.768 202.327 485.768 202.327Z" fill="#FFD8BD"/>
<path d="M341.528 261.675L339.306 260.312L263.239 399.201L265.461 400.564L341.528 261.675Z" fill="#C0783D"/>
<path d="M247.208 269.205C247.544 270.094 249.056 270.882 251.216 271.44C256.064 272.71 264.248 272.888 270.2 270.551C276.608 268.037 281.24 232.274 283.208 213.935C283.904 207.534 284.264 203.267 284.264 203.267C284.264 203.267 280.592 197.171 266.36 199.203C252.152 201.235 250.712 206.315 249.416 215.433C248.168 224.552 246.104 266.31 247.208 269.205Z" fill="#F99F46"/>
<path d="M260.216 187.189L287.624 192.091L285.512 202.048L260.408 208.321L260.216 187.189Z" fill="#AA3E39"/>
<path d="M258.008 208.677C263.403 208.677 267.776 203.798 267.776 197.78C267.776 191.762 263.403 186.884 258.008 186.884C252.613 186.884 248.24 191.762 248.24 197.78C248.24 203.798 252.613 208.677 258.008 208.677Z" fill="#B84C42"/>
<path d="M251.072 198.06C251.072 192.827 255.08 188.586 260.024 188.586C260.24 188.586 260.456 188.586 260.672 188.611C259.928 188.408 259.16 188.281 258.344 188.281C253.4 188.281 249.392 192.523 249.392 197.755C249.392 202.759 253.064 206.848 257.696 207.204C253.88 206.137 251.072 202.454 251.072 198.06Z" fill="#AA3E39"/>
<path d="M339.032 269.942C338.912 268.215 336.536 266.716 335.024 266.259C333.824 265.903 332.24 264.1 331.664 263.414C326.264 256.175 318.272 241.418 316.256 238.852C315.536 237.912 313.304 233.163 310.4 227.016C308.456 222.876 306.224 218.151 303.944 213.528C300.464 214.875 296.264 216.703 292.64 218.888C294.824 222.571 297.728 227.498 300.272 231.918C302.624 235.982 304.688 239.64 305.624 241.468C308.504 247.133 328.232 266.284 328.232 266.284L329.336 267.453C329.552 267.681 329.744 267.935 329.912 268.189C330.536 269.154 331.664 271.11 333.44 272.812C334.52 273.853 335.216 274.514 337.208 274.234C339.752 273.93 339.152 271.694 339.032 269.942Z" fill="#E8945B"/>
<path d="M303.272 209.185C303.272 209.185 313.112 229.988 314.528 233.239C314.528 233.239 309.32 244.186 305.936 244.135C302.528 244.085 303.272 209.185 303.272 209.185Z" fill="#233862"/>
<path d="M278.864 162.678C278.72 162.119 276.776 155.743 267.368 157.852C267.368 157.852 272.072 157.217 273.368 159.147C273.368 159.147 269.624 157.344 267.296 158.842C264.968 160.366 264.584 165.446 264.92 166.996C265.28 168.545 267.848 173.168 269.552 173.168C270.2 173.168 270.896 172.939 271.496 172.66C271.232 173.473 270.992 174.362 270.8 175.352C268.976 184.395 274.664 191.253 277.592 189.576C279.464 188.484 280.904 191.964 280.904 191.964L296.528 170.044C296.552 170.018 285.68 156.175 278.864 162.678Z" fill="#233862"/>
<path d="M303.416 271.009C296.312 247.006 304.088 241.799 303.368 229.784C302.624 217.77 293.84 204.867 293.84 204.867C293.84 204.867 293.384 204.816 292.64 204.74C292.04 204.41 291.896 201.794 291.896 199.05C291.896 195.748 292.136 192.243 292.136 192.243L281.6 190.033L280.976 189.906C281 197.679 279.08 202.759 277.664 203.953C276.344 204.105 270.728 204.867 267.272 206.391C265.976 206.975 264.968 207.661 264.632 208.448C261.728 215.179 258.848 232.172 256.832 244.288C255.704 251.044 253.208 259.579 255.056 261.382L265.976 256.988C266.384 254.93 267.08 250.689 268.256 246.066C268.424 245.38 268.208 244.516 268.376 243.805C270.44 249.749 271.496 252.492 271.448 255.057C271.376 258.715 269.024 261.992 264.128 273.599C261.464 280.051 310.664 295.52 303.416 271.009Z" fill="#FFB27D"/>
<path d="M292.136 192.243C292.136 192.243 291.896 195.748 291.896 199.05C285.992 198.873 282.896 193.183 281.6 190.033L292.136 192.243Z" fill="#E8945B"/>
<path d="M280.52 188.84C280.52 188.84 277.424 183.683 276.68 179.264C276.152 176.114 277.664 164.43 288.776 166.107C288.776 166.107 291.992 166.437 295.04 168.621C297.44 170.348 300.92 174.057 297.032 184.268L296.024 187.722L280.52 188.84Z" fill="#233862"/>
<path d="M294.104 195.367C294.104 195.367 280.16 195.621 280.136 186.427C280.136 177.232 278.312 171.06 287.216 170.526C296.12 169.993 297.848 173.498 298.568 176.546C299.288 179.619 297.728 195.088 294.104 195.367Z" fill="#FFB27D"/>
<path d="M313.568 409.667L309.104 410.836C309.104 410.836 302.072 400.625 296.216 386.731C292.52 377.917 289.28 367.859 288.632 358.486C288.344 354.244 288.56 350.155 289.52 346.396C289.52 346.396 288.272 337.506 286.568 325.619C284.672 312.411 282.2 295.545 280.28 283.124L281.456 282.769L306.44 274.92C306.44 274.92 311.336 295.164 309.08 326.914C308.624 333.416 307.856 340.427 306.704 347.818C304.712 360.467 305.528 373.193 307.184 383.759C309.512 398.872 313.568 409.667 313.568 409.667Z" fill="#B84C42"/>
<path d="M309.056 326.889L289.472 365.141C288.92 361.636 287.216 355.413 289.52 346.396C289.52 346.396 288.272 337.506 286.568 325.619C284.672 312.411 282.2 295.545 280.28 283.124L281.456 282.769L306.44 274.92C306.392 274.895 311.288 295.139 309.056 326.889Z" fill="#AA3E39"/>
<path d="M287.144 348.504C286.256 350.257 277.472 361.433 268.664 373.802C267.92 374.869 267.128 376.012 266.312 377.206C261.128 384.953 255.128 395.037 251.552 399.964C248.312 404.435 245.384 398.847 247.016 394.834C249.608 388.534 251.792 377.536 254.288 369.434C254.864 367.554 255.464 365.852 256.088 364.379C258.776 358.004 264.032 350.993 270.416 344.084C271.52 342.891 261.152 314.239 261.848 292.141C262.112 283.378 263.264 275.682 265.904 270.983L292.136 272.355C292.184 272.329 295.76 331.359 287.144 348.504Z" fill="#B84C42"/>
<path d="M298.184 171.441C296.024 168.672 294.416 169.282 293.48 170.12C285.992 165.726 276.608 170.475 276.608 170.475C275.672 177.079 275.528 182.617 275.528 182.617C275.528 182.617 278.072 184.268 283.928 182.693C285.728 182.21 287.312 180.864 288.68 179.238C286.304 183.455 283.088 186.477 283.088 186.477C290.096 183.048 292.904 172.761 293.168 171.669C294.008 172.482 295.688 174.235 296.216 175.962C296.912 178.299 297.224 183.125 298.544 182.947C298.52 182.921 301.4 175.606 298.184 171.441Z" fill="#233862"/>
<path d="M260.864 282.032C260.816 282.972 260.864 283.709 261.032 284.242C261.584 286.096 263.504 286.96 268.136 286.452C270.968 286.147 272.24 281.118 272.792 276.825C274.496 282.947 276.872 286.401 279.944 287.112C284.432 288.179 307.112 291.075 308.6 279.695C310.232 267.148 305.336 244.948 305.072 232.959C305.744 228.718 305.96 225.035 305.888 221.86C305.696 213.325 303.344 208.55 301.52 206.62C301.016 206.213 300.488 205.934 298.424 205.553C297.368 205.375 295.904 205.146 293.816 204.842C293.816 204.842 292.928 204.715 292.952 204.765C293.336 205.502 297.464 211.928 297.056 214.036C296.648 216.246 280.784 215.941 279.512 214.722C278.264 213.503 274.976 204.308 274.976 204.308C274.976 204.308 268.52 205.045 265.376 207.483C265.376 207.483 265.376 207.509 265.4 207.534C265.016 207.813 264.728 208.118 264.56 208.448C261.2 215.23 257.84 232.35 255.464 244.542C261.2 247.895 266.192 246.879 267.752 246.447C265.784 260.518 261.176 275.631 260.864 282.032Z" fill="#2B478B"/>
<path d="M293.84 204.867C293.84 204.867 293.84 204.892 293.864 204.918C294.488 205.959 304.16 222.317 305.072 232.959C305.744 228.718 305.96 225.035 305.888 221.86C304.64 217.846 299.072 208.855 296.168 205.197C295.976 204.943 293.84 204.867 293.84 204.867Z" fill="#F99F46"/>
<path d="M296.216 386.706C302.072 400.625 309.104 410.81 309.104 410.81L313.592 409.642C313.592 409.642 309.536 398.872 307.184 383.734C305.744 384.851 302.72 386.248 296.216 386.706Z" fill="#FFB27D"/>
<path d="M305.552 416.17H308.624C309.656 415.992 310.4 415.687 311.456 415.535C313.064 415.306 313.784 416.017 313.928 416.17C313.952 416.195 313.952 416.195 313.952 416.195H326.984C327.32 415.712 327.008 414.544 326.696 413.706C326.48 413.122 326.024 412.69 325.472 412.537C324.08 412.106 321.368 411.725 318.872 409.337C317.48 407.991 312.104 404.409 312.104 404.409H312.08C311.96 404.409 311.408 404.587 308.96 406.772C307.688 407.889 305.552 405.171 305.552 405.171C305.552 405.171 305.144 405.527 304.856 406.187C304.616 406.695 304.448 407.432 304.568 408.296C304.76 409.54 304.136 411.852 303.632 413.401C303.32 414.341 303.08 415.027 303.08 415.027C303.08 415.027 302.912 415.814 305.552 416.17Z" fill="#233862"/>
<path d="M305.552 416.17H308.624C309.656 415.992 310.4 415.687 311.456 415.535C313.064 415.306 313.784 416.017 313.928 416.17C313.952 416.195 313.952 416.195 313.952 416.195H326.984C327.32 415.712 327.008 414.544 326.696 413.706C326.312 413.325 326.192 415.331 325.976 415.636C325.76 415.941 315.344 415.763 314.744 415.281C314.144 414.823 312.344 414.011 309.824 414.646C307.64 415.204 304.424 413.782 303.608 413.401C303.296 414.341 303.056 415.027 303.056 415.027C303.056 415.027 302.912 415.814 305.552 416.17Z" fill="#466AA5"/>
<path d="M260.864 282.032C263.984 280.94 267.968 277.994 272.768 271.44C285.464 254.067 273.848 233.645 272.288 233.264C270.728 232.883 267.8 246.472 267.8 246.472C267.488 249.419 266.792 252.517 266.216 255.54C266.168 255.845 266.072 256.124 266.048 256.429C265.52 259.934 265.856 263.287 265.136 266.538C265.112 266.614 263.768 266.843 263.768 266.894C262.28 273.295 261.032 278.806 260.864 282.032Z" fill="#233862"/>
<path d="M290.096 189.957C290.096 189.957 290.36 191.1 293.024 190.872C293.024 190.872 295.256 190.694 295.184 189.449C295.184 189.449 293 188.586 290.096 189.957Z" fill="white"/>
<path d="M266.312 377.181C261.128 384.928 255.128 395.011 251.552 399.939C248.312 404.409 245.384 398.821 247.016 394.808C249.608 388.509 251.792 377.511 254.288 369.408C255.992 372.126 259.448 375.606 266.312 377.181Z" fill="#FFB27D"/>
<path d="M258.512 416.195C258.512 416.195 250.88 415.179 248.96 412.563C248.744 412.258 248.24 409.413 248.24 409.388C248.192 409.159 247.952 408.118 246.44 407.33C245.456 406.822 244.592 406.695 243.656 406.137C242.96 405.73 241.64 404.79 241.016 404.257C238.856 402.454 239.48 401.768 239.48 401.768C239.48 401.768 240.056 401.336 240.848 400.726C241.064 400.549 241.28 400.371 241.52 400.168C242.696 399.177 244.016 397.882 244.448 396.891C244.808 396.053 245.36 395.545 245.84 395.24C246.464 394.859 246.992 394.808 246.992 394.808C246.992 394.808 247.352 398.466 249.056 398.263C252.344 397.882 252.944 398.059 253.04 398.136L253.064 398.161C253.064 398.161 254.96 403.901 255.44 405.908C256.28 409.489 257.768 411.013 258.656 412.283C258.872 412.614 259.04 412.944 259.112 413.274C259.544 414.646 258.968 416.017 258.512 416.195Z" fill="#233862"/>
<path d="M258.512 416.195C258.512 416.195 250.88 415.179 248.96 412.563C248.744 412.258 248.24 409.413 248.24 409.388C248.192 409.159 247.952 408.118 246.44 407.33C245.456 406.822 244.592 406.695 243.656 406.136C242.96 405.73 241.64 404.79 241.016 404.257C238.856 402.453 239.48 401.768 239.48 401.768C239.48 401.768 240.056 401.336 240.848 400.726C241.064 400.548 241.28 400.371 241.52 400.167C241.64 401.234 242.072 403.165 243.8 404.181C246.272 405.628 248.816 407.889 249.44 409.489C250.064 411.089 250.424 412.486 251.936 413.299C253.448 414.087 257.576 414.849 257.888 414.747C258.128 414.671 258.512 413.604 259.16 413.299C259.544 414.645 258.968 416.017 258.512 416.195Z" fill="#466AA5"/>
<path d="M270.344 205.146L265.712 207.001C269.072 210.582 274.712 217.872 277.088 228.438C280.592 243.983 267.416 249.038 267.416 249.038L266.264 255.311L266.24 255.515C266.24 255.515 282.704 251.324 281.744 231.791C281.048 218.278 274.184 209.134 270.344 205.146Z" fill="#F99F46"/>
<path d="M330.56 280.534L329.264 279.746C328.472 279.264 328.208 278.197 328.664 277.384L338.48 259.477C338.936 258.639 339.944 258.359 340.712 258.842L342.008 259.629C342.8 260.112 343.064 261.179 342.608 261.992L332.792 279.899C332.336 280.737 331.328 281.016 330.56 280.534Z" fill="#233862"/>
<path d="M265.952 402.225L261.584 399.533C260.984 399.152 260.768 398.339 261.128 397.678C261.488 397.043 262.256 396.815 262.88 397.196L267.248 399.888C267.848 400.269 268.064 401.082 267.704 401.742C267.344 402.377 266.576 402.606 265.952 402.225Z" fill="#233862"/>
<path d="M261.32 405.4C260.936 405.146 260.768 404.638 260.96 404.206L262.664 400.218L264.896 401.59L262.496 405.146C262.208 405.527 261.704 405.654 261.32 405.4Z" fill="#C0783D"/>
<path d="M298.681 275.15L297.184 272.942L173.944 366.514L175.441 368.722L298.681 275.15Z" fill="#C0783D"/>
<path d="M281.36 287.62L280.496 286.325C279.968 285.537 280.136 284.471 280.88 283.912L296.768 271.847C297.512 271.288 298.52 271.466 299.048 272.253L299.912 273.549C300.44 274.336 300.272 275.403 299.528 275.962L283.64 288.027C282.92 288.56 281.888 288.382 281.36 287.62Z" fill="#233862"/>
<path d="M175.256 370.5L172.304 366.157C171.896 365.547 172.016 364.709 172.592 364.277C173.168 363.846 173.96 363.973 174.368 364.582L177.32 368.926C177.728 369.535 177.608 370.373 177.032 370.805C176.456 371.237 175.664 371.085 175.256 370.5Z" fill="#233862"/>
<path d="M169.784 371.364C169.52 370.983 169.568 370.424 169.928 370.119L173.048 367.224L174.536 369.434L170.96 371.643C170.552 371.872 170.048 371.745 169.784 371.364Z" fill="#C0783D"/>
<path d="M260.816 251.806L255.08 261.382C264.992 268.621 276.272 272.609 283.568 277.613C284.264 278.146 286.4 279.213 286.856 280.457C287.432 282.007 288.608 283.988 290.24 283.963C291.872 283.937 294.344 282.718 294.68 280.991C294.824 280.229 294.176 280.508 292.736 279.01C291.536 277.765 291.032 276.978 290.984 276.216C290.432 275.758 288.368 274.666 288.368 274.666C287.096 273.879 286.28 273.345 286.28 273.345C286.232 273.371 267.248 257.724 260.816 251.806Z" fill="#FFB27D"/>
<path d="M335.984 269.789C336.032 269.332 336.104 268.85 336.176 268.418C336.464 266.97 333.944 265.675 333.944 265.675L332.504 267.834C332.504 267.834 334.832 269.307 334.784 270.577C334.76 270.983 334.88 271.263 335.048 271.44C334.544 272.71 334.376 274.133 335.912 274.26C338 274.438 338.792 269.002 338.792 269.002C338.792 269.002 336.944 268.926 335.984 269.789Z" fill="#E8945B"/>
<path d="M266.048 256.429C266.048 256.429 267.416 252.035 267.824 246.472C267.8 246.472 264.92 253.254 266.048 256.429Z" fill="#FFB27D"/>
</svg>
