<svg width="697" height="374" viewBox="0 0 697 374" fill="none" xmlns="http://www.w3.org/2000/svg">
<path d="M693.915 294.347C684.831 341.267 653.663 373.717 653.663 373.717L217.636 373.853L98.1313 373.88L14.1189 373.907C5.60612 358.376 1.49933 345.456 0.438632 334.249C0.166659 331.502 0.0850675 328.864 0.166659 326.307C0.166659 326.225 0.166659 326.171 0.166659 326.089C0.35704 320.976 1.17296 316.216 2.45123 311.701C4.00148 306.315 6.23166 301.283 8.8154 296.387C9.41374 295.272 10.0393 294.157 10.6648 293.041C14.3636 286.622 18.6336 280.393 22.7676 273.947C27.0376 267.31 31.1716 260.401 34.4353 252.758C35.9311 249.222 37.2638 245.523 38.2973 241.633C39.6571 236.601 40.5546 231.243 40.8538 225.422C40.9626 223.328 40.9898 221.152 40.9354 218.921C40.9354 218.459 40.9082 217.969 40.881 217.507C40.6634 211.741 39.8475 205.539 38.3245 198.848C38.1069 197.923 37.8893 196.971 37.6445 196.019C37.4813 195.366 37.3182 194.686 37.1278 194.006C35.8495 189.165 34.7888 184.432 33.9185 179.753C33.4561 177.197 33.0482 174.64 32.6946 172.11C32.4498 170.369 32.2595 168.629 32.0691 166.888C15.2612 4.53092 258.949 -54.5203 331.892 58.0877C388.272 145.128 454.497 158.075 477.479 143.305C531.411 108.598 604.953 102.75 667.996 188.267C696.309 226.483 699.871 263.529 693.915 294.347Z" fill="#FFEDC5"/>
<path opacity="0.5" d="M274.342 373.064L97.8593 373.798L13.8468 373.635C5.36127 358.076 1.30887 345.156 0.275375 333.95C0.030599 331.203 -0.0509953 328.564 0.0305966 326.008C0.0305966 325.926 0.0305966 325.872 0.0305966 325.79L8.76093 296.115C9.35927 295 9.98481 293.884 10.6375 292.769C14.3636 286.35 18.6335 280.148 22.7947 273.702C27.0647 267.065 31.2259 260.184 34.4896 252.54C36.0126 249.004 37.3181 245.332 38.3788 241.416C39.7386 236.384 40.6633 231.025 40.9897 225.204C41.0985 223.11 41.1529 220.934 41.0985 218.731C41.0985 218.268 41.0713 217.779 41.0441 217.316C45.6133 210.489 50.6176 203.39 55.4315 197.27C62.8291 187.886 69.7645 180.868 73.98 180.896C80.6434 180.95 86.5996 196.862 92.5014 210.707C97.8321 223.164 103.136 233.908 108.929 229.964C116.816 224.579 129.87 187.26 143.224 161.828C150.622 147.766 158.101 137.348 164.873 138.001C169.85 138.491 175.045 144.393 180.403 153.016C195.362 177.169 211.435 222.702 227.21 230.236C248.641 240.464 274.342 373.064 274.342 373.064Z" fill="#C2D9FF"/>
<path d="M693.915 294.347C690.298 313.115 683.118 329.571 675.829 342.545C664.896 362.021 653.663 373.717 653.663 373.717L577.375 373.744L14.1189 373.907C5.60612 358.376 1.49933 345.456 0.438632 334.249C0.166659 331.502 0.0850675 328.864 0.166659 326.307C0.329843 321.112 1.14577 316.27 2.47843 311.701C4.38224 305.064 7.31955 298.971 10.7192 293.041C24.481 293.069 49.9649 295 76.3463 306.614C115.483 323.832 160.794 350.433 257.045 332.481C353.296 314.502 428.796 289.859 474.623 310.64C520.451 331.393 569.433 333.161 601.526 312.843C628.179 295.979 668.023 284.745 693.915 294.347Z" fill="#AECBF4"/>
<path d="M288.458 153.07C288.458 150.105 286.064 147.712 283.1 147.712C280.135 147.712 277.742 150.105 277.742 153.07C277.742 156.035 280.135 158.429 283.1 158.429C286.064 158.429 288.458 156.035 288.458 153.07Z" fill="#415DA5"/>
<path d="M292.08 127.25L282.985 152.594L283.676 152.843L292.771 127.498L292.08 127.25Z" fill="#415DA5"/>
<path d="M308.774 164.494L309.046 163.814L283.318 152.771L266.428 128.617L265.83 129.025L282.855 153.369L282.937 153.397L308.774 164.494Z" fill="#415DA5"/>
<path d="M293.299 181.005L293.979 180.787C293.789 180.243 283.861 154.077 283.426 152.961L283.182 152.281L267.162 177.632L267.788 178.013L283.046 153.886C286.663 163.461 293.163 180.597 293.299 181.005Z" fill="#415DA5"/>
<path d="M311.565 145.958L283.019 150.868L283.144 151.591L311.689 146.681L311.565 145.958Z" fill="#415DA5"/>
<path d="M273.271 125.866L272.574 126.098L280.933 151.18L281.63 150.948L273.271 125.866Z" fill="#415DA5"/>
<path d="M283.154 153.451L283.263 153.397L309.427 140.123L309.101 139.47L283.046 152.689L254.978 147.984L254.842 148.691L283.154 153.451Z" fill="#415DA5"/>
<path d="M272.52 180.107C272.683 179.644 279.401 163.107 283.154 153.859L297.678 176.734L298.303 176.353L283.018 152.308L282.746 152.961C282.311 154.049 272.003 179.345 271.84 179.889L272.52 180.107Z" fill="#415DA5"/>
<path d="M283.145 152.733L283.037 153.46L311.229 157.65L311.337 156.924L283.145 152.733Z" fill="#415DA5"/>
<path d="M299.908 130.846L284.266 148.854L284.82 149.335L300.462 131.328L299.908 130.846Z" fill="#415DA5"/>
<path d="M282.555 155.046L281.824 155.106L284.007 181.482L284.739 181.421L282.555 155.046Z" fill="#415DA5"/>
<path d="M284.172 151.341L259.251 168.622L259.67 169.226L284.591 151.945L284.172 151.341Z" fill="#415DA5"/>
<path d="M303.743 172.6L304.259 172.083L283.454 151.112V123.803H282.719V151.411L303.743 172.6Z" fill="#415DA5"/>
<path d="M267.19 180.216C262.539 177.469 258.622 173.552 255.903 168.873C253.129 164.086 251.66 158.619 251.66 153.07C251.66 135.717 265.775 121.6 283.127 121.6C300.479 121.6 314.594 135.717 314.594 153.07C314.594 170.424 300.479 184.541 283.127 184.541C277.497 184.541 271.976 183.045 267.19 180.216ZM256.011 153.07C256.011 157.857 257.29 162.563 259.683 166.67C262.022 170.696 265.395 174.069 269.42 176.435C273.554 178.856 278.286 180.161 283.127 180.161C298.058 180.161 310.216 168.003 310.216 153.07C310.216 138.137 298.058 125.979 283.127 125.979C268.196 125.979 256.011 138.137 256.011 153.07Z" fill="#2C3A64"/>
<path d="M359.214 99.0954L340.73 156.922L343.838 157.916L362.323 100.089L359.214 99.0954Z" fill="#739CF3"/>
<path d="M345.409 158.102L389.033 154.294L308.121 99.5951L312.745 109.061L379.569 151.846L345.137 154.838L345.409 158.102Z" fill="#739CF3"/>
<path d="M339.534 155.545L342.281 153.75L308.72 99.9758L304.803 104.029L339.534 155.545Z" fill="#739CF3"/>
<path d="M285.684 151.629L304.368 111.617L301.866 110.611C300.234 109.958 298.385 110.747 297.732 112.379L282.638 150.377L285.684 151.629Z" fill="#415DA5"/>
<path d="M304.395 111.617C307.088 104.6 311.63 93.5566 311.548 93.6654L308.829 91.843C308.693 92.0334 308.611 92.1694 301.513 110.584L304.395 111.617Z" fill="#415DA5"/>
<path d="M320.088 97.5006C321.149 96.0046 320.823 93.9374 319.327 92.8766C317.831 91.8158 315.764 92.1422 314.703 93.6382C313.643 95.1342 313.969 97.2014 315.465 98.2622C316.933 99.323 319.028 98.9966 320.088 97.5006Z" fill="#415DA5"/>
<path d="M307.523 88.7967C308.584 87.3007 308.258 85.2335 306.762 84.1727C305.266 83.1119 303.199 83.4383 302.138 84.9343C301.077 86.4303 301.404 88.4975 302.9 89.5583C304.368 90.6463 306.463 90.2927 307.523 88.7967Z" fill="#415DA5"/>
<path d="M304.287 89.9936L316.961 98.0448L318.728 94.5904L306.054 86.512L304.287 89.9936Z" fill="#415DA5"/>
<path d="M325.147 165.8H332.245C333.089 165.8 333.769 165.12 333.769 164.277C333.769 163.433 333.089 162.753 332.245 162.753H325.147C324.304 162.753 323.624 163.433 323.624 164.277C323.624 165.12 324.331 165.8 325.147 165.8Z" fill="#415DA5"/>
<path d="M342.469 156.248L328.114 162.79L328.644 163.954L342.999 157.411L342.469 156.248Z" fill="#415DA5"/>
<path d="M389.659 153.07C389.659 150.105 387.266 147.712 384.301 147.712C381.337 147.712 378.943 150.105 378.943 153.07C378.943 156.035 381.337 158.429 384.301 158.429C387.266 158.429 389.659 156.035 389.659 153.07Z" fill="#415DA5"/>
<path d="M393.291 127.262L384.195 152.607L384.886 152.855L393.982 127.51L393.291 127.262Z" fill="#415DA5"/>
<path d="M409.975 164.494L410.274 163.814L384.546 152.771L367.629 128.617L367.031 129.025L384.056 153.369L384.165 153.397L409.975 164.494Z" fill="#415DA5"/>
<path d="M394.5 181.005L395.18 180.787C394.99 180.243 385.063 154.077 384.627 152.961L384.383 152.281L368.363 177.632L368.989 178.013L384.247 153.886C387.864 163.461 394.364 180.597 394.5 181.005Z" fill="#415DA5"/>
<path d="M412.763 145.958L384.217 150.868L384.342 151.592L412.887 146.682L412.763 145.958Z" fill="#415DA5"/>
<path d="M374.473 125.877L373.776 126.11L382.135 151.192L382.832 150.96L374.473 125.877Z" fill="#415DA5"/>
<path d="M384.355 153.451L384.464 153.397L410.655 140.123L410.329 139.47L384.247 152.689L356.179 147.984L356.07 148.691L384.355 153.451Z" fill="#415DA5"/>
<path d="M373.749 180.107C373.912 179.644 380.63 163.107 384.383 153.859L398.906 176.734L399.532 176.353L384.247 152.308L383.975 152.961C383.54 154.049 373.232 179.345 373.069 179.889L373.749 180.107Z" fill="#415DA5"/>
<path d="M384.356 152.675L384.248 153.402L412.443 157.587L412.55 156.86L384.356 152.675Z" fill="#415DA5"/>
<path d="M401.131 130.838L385.489 148.845L386.043 149.327L401.685 131.319L401.131 130.838Z" fill="#415DA5"/>
<path d="M383.758 155.047L383.026 155.107L385.21 181.483L385.942 181.422L383.758 155.047Z" fill="#415DA5"/>
<path d="M385.402 151.337L360.481 168.618L360.899 169.221L385.82 151.941L385.402 151.337Z" fill="#415DA5"/>
<path d="M404.944 172.6L405.461 172.083L384.655 151.112V123.803H383.948V151.411L404.944 172.6Z" fill="#415DA5"/>
<path d="M368.391 180.216C363.74 177.469 359.823 173.552 357.104 168.873C354.33 164.086 352.861 158.619 352.861 153.07C352.861 135.717 366.976 121.6 384.328 121.6C401.68 121.6 415.795 135.717 415.795 153.07C415.795 170.424 401.68 184.541 384.328 184.541C378.698 184.541 373.204 183.045 368.391 180.216ZM357.212 153.07C357.212 157.857 358.491 162.563 360.884 166.67C363.223 170.696 366.596 174.069 370.621 176.435C374.755 178.856 379.487 180.161 384.328 180.161C399.259 180.161 411.417 168.003 411.417 153.07C411.417 138.137 399.259 125.979 384.328 125.979C369.397 125.979 357.212 138.137 357.212 153.07Z" fill="#2C3A64"/>
<path d="M358.681 120.784C359.144 120.947 359.66 120.893 360.068 120.648C374.782 111.753 395.153 115.099 401.027 116.323C401.354 116.405 401.653 116.133 401.653 115.806V114.664C401.653 113.793 401 113.032 400.13 112.896C396.948 112.433 389.496 111.4 385.335 111.373C385.226 111.373 385.117 111.373 385.008 111.373C375.679 111.373 367.656 113.032 361.047 116.323C359.688 117.003 358.137 117.085 356.723 116.595L354.901 115.969C353.867 115.616 352.725 116.16 352.371 117.193C352.127 117.873 352.48 118.608 353.16 118.825L358.681 120.784Z" fill="#D57912"/>
<path d="M372.361 98.371C372.361 98.371 372.96 95.6782 371.274 95.515C369.587 95.3246 363.468 96.6574 361.809 96.467C360.15 96.2766 351.637 94.8894 350.114 96.331C348.618 97.7726 349.244 99.051 352.263 99.323C355.254 99.595 359.252 100.085 360.395 101.064C361.537 102.016 369.75 104.845 372.361 98.371Z" fill="#415DA5"/>
<path d="M350.495 157.422C350.495 152.907 346.823 149.235 342.308 149.235C337.794 149.235 334.122 152.907 334.122 157.422C334.122 161.938 337.794 165.61 342.308 165.61C346.823 165.61 350.495 161.965 350.495 157.422Z" fill="#2C3A64"/>
<path d="M521.974 184.541H520.342V180.76C520.342 175.701 516.208 171.566 511.149 171.566H275.267C270.208 171.566 266.074 175.701 266.074 180.76V183.181H264.443V180.76C264.443 174.776 269.311 169.934 275.267 169.934H511.149C517.133 169.934 521.974 174.803 521.974 180.76V184.541Z" fill="#2C3A64"/>
<path d="M295.056 183.181H349.696V138.138H295.056V183.181Z" fill="#D3671E"/>
<path d="M322.377 183.181H377.016V138.138H322.377V183.181Z" fill="#F1A34F"/>
<path d="M295.094 171.757H303.743L302.981 169.309L303.743 167.568H295.094V171.757Z" fill="#F1A34F"/>
<path d="M351.284 138.11H347.694V183.344H351.284V138.11Z" fill="#E58628"/>
<path d="M322.291 158.701H295.067V162.264H322.291V158.701Z" fill="#C15911"/>
<path d="M377.393 158.701H322.373V162.264H377.393V158.701Z" fill="#E58628"/>
<path d="M342.907 113.168H312.527V138.219H342.907V113.168Z" fill="#D3671E"/>
<path d="M358.11 113.168H327.731V138.219H358.11V113.168Z" fill="#F1A34F"/>
<path d="M312.555 131.854H317.369L316.933 130.521L317.369 129.542H312.555V131.854Z" fill="#F1A34F"/>
<path d="M343.777 113.168H341.792V138.328H343.777V113.168Z" fill="#E58628"/>
<path d="M327.676 124.619H312.527V126.605H327.676V124.619Z" fill="#C15911"/>
<path d="M358.328 124.619H327.731V126.605H358.328V124.619Z" fill="#E58628"/>
<path d="M366.269 182.773L362.842 183.534L351.8 138.219L351.556 137.24L344.348 126.577L343.804 125.789L342.988 124.619L342.934 124.51L341.792 122.851L335.237 113.168H339.453L341.792 116.622L342.934 118.281L343.804 119.587L347.204 124.619L348.537 126.577L354.846 135.88L354.928 136.179L355.418 138.219L366.269 182.773Z" fill="#2C3A64"/>
<path d="M517.459 179.862C516.235 180.025 515.011 180.189 513.787 180.352C509.708 180.869 505.547 181.304 501.331 181.603C500.053 181.712 498.802 181.793 497.523 181.848C491.458 182.201 485.312 182.337 479.138 182.147C472.638 181.957 466.274 181.603 460.154 181.086C458.767 180.977 457.38 180.841 455.993 180.705C414.952 176.68 384.791 165.501 385.144 153.179C385.416 143.849 403.149 136.125 429.693 132.181C430.89 131.99 432.114 131.827 433.338 131.664H433.365C444.135 130.249 456.211 129.433 469.075 129.379C470.38 129.379 471.713 129.379 473.019 129.379C475.521 129.406 478.05 129.433 480.607 129.515C482.538 129.569 484.469 129.651 486.372 129.76C487.732 129.841 489.119 129.923 490.479 130.032C538.809 133.894 580.937 154.974 581.971 158.673C583.086 162.617 554.094 174.694 517.459 179.862Z" fill="#ABDDDA"/>
<path d="M581.971 158.701L504.839 156.552L500.841 156.443L487.488 156.062L483.49 155.953L445.957 154.893L441.959 154.784L385.171 153.206C385.443 143.877 403.176 136.152 429.721 132.208C430.917 132.017 432.141 131.854 433.365 131.691H433.392C444.162 130.277 456.238 129.461 469.102 129.406C470.408 129.406 471.74 129.406 473.046 129.406C475.548 129.433 478.077 129.461 480.634 129.542C482.565 129.597 484.496 129.678 486.4 129.787C487.76 129.869 489.147 129.95 490.507 130.059C538.809 133.921 580.937 155.001 581.971 158.701Z" fill="#91CECF"/>
<path d="M429.693 132.208L441.932 154.784L442.558 155.953L455.993 180.733L456.591 181.848L458.468 185.302L461.541 183.67L460.426 181.603L460.154 181.113L446.556 156.062L445.93 154.893L433.365 131.691L429.693 132.208Z" fill="#2C3A64"/>
<path d="M519.553 183.67L516.48 185.275L514.603 181.848L513.787 180.325L500.814 156.416L500.542 155.926L486.345 129.76C487.705 129.841 489.092 129.923 490.452 130.032L504.54 156.035L504.812 156.525L517.459 179.835L518.411 181.576L519.553 183.67Z" fill="#2C3A64"/>
<path opacity="0.7" d="M176.629 81.9341C176.629 81.9341 182.286 74.3181 195.776 75.1613C195.776 75.1613 215.385 62.4861 236.272 73.4749C236.272 73.4749 258.492 70.7549 274.947 75.8413C285.907 79.2413 289.552 82.7773 289.552 82.7773L176.629 81.9341Z" fill="#F8FCFF"/>
<path opacity="0.7" d="M93.7856 47.8798C93.7856 47.8798 101.836 37.9246 121.037 39.0126C121.037 39.0126 148.942 22.3934 178.696 36.8094C178.696 36.8094 210.326 33.2462 233.743 39.9102C249.354 44.3438 254.522 48.995 254.522 48.995L93.7856 47.8798Z" fill="#F8FCFF"/>
<path d="M229.636 22.0398C233.947 22.0398 237.442 18.5448 237.442 14.2334C237.442 9.92204 233.947 6.427 229.636 6.427C225.325 6.427 221.831 9.92204 221.831 14.2334C221.831 18.5448 225.325 22.0398 229.636 22.0398Z" fill="#F8FBFF"/>
<path d="M229.636 353.907H26.1189C17.6061 338.376 13.4993 325.456 12.4386 314.249C12.1667 311.502 12.0851 308.864 12.1667 306.307C12.3298 301.112 13.1458 296.27 14.4784 291.701C16.3822 285.064 19.3195 278.971 22.7192 273.041C26.418 266.622 30.688 260.393 34.822 253.947C34.822 253.947 58.3205 239.286 90.3861 248.045C122.479 256.803 108.282 277.393 114.619 286.614C120.956 295.808 131.073 290.422 146.276 296.923C161.48 303.424 158.107 333.425 164.009 335.085C169.911 336.744 228.385 336.798 229.609 353.825C229.636 353.853 229.636 353.88 229.636 353.907Z" fill="#A8D29F"/>
<path d="M211.903 237.3V250.955C211.903 252.179 212.203 253.348 212.719 254.382C213.97 256.884 216.581 258.625 219.573 258.625H222.021C226.209 258.625 229.663 255.198 229.663 250.982V237.328C229.663 235.886 229.255 234.553 228.548 233.411C228.548 233.384 228.548 233.384 228.548 233.384C227.188 231.153 224.768 229.684 222.021 229.684H219.573C215.33 229.657 211.903 233.112 211.903 237.3Z" fill="#2B478B"/>
<path opacity="0.3" d="M212.692 254.382C213.943 256.885 216.554 258.625 219.546 258.625H221.994C226.182 258.625 229.636 255.198 229.636 250.982V237.328C229.636 235.886 229.228 234.553 228.521 233.411C228.385 234.227 225.149 252.968 212.692 254.382Z" fill="#2B478B"/>
<path d="M333.176 337.261H295.372V299.099H334.808L333.176 337.261Z" fill="#0C2544"/>
<path d="M218.676 250.547L399.728 261.155V163.181H277.721C266.08 163.181 255.446 169.681 250.143 180.045L242.147 195.63L218.676 250.547Z" fill="#FBB667"/>
<path d="M319.496 331.059C319.496 341.422 314.138 352.846 314.138 352.846C314.138 352.846 306.196 352.846 305.081 352.846C297.14 352.846 290.694 343.081 290.694 331.059C290.694 319.037 306.196 309.272 314.138 309.272C322.08 309.272 319.496 319.009 319.496 331.059Z" fill="#163560"/>
<path d="M314.138 352.846C322.084 352.846 328.525 343.092 328.525 331.059C328.525 319.026 322.084 309.272 314.138 309.272C306.192 309.272 299.751 319.026 299.751 331.059C299.751 343.092 306.192 352.846 314.138 352.846Z" fill="#2B478B"/>
<path d="M321.237 331.059C321.237 337.152 317.973 342.102 313.948 342.102C309.923 342.102 306.659 337.152 306.659 331.059C306.659 324.966 309.923 320.016 313.948 320.016C317.973 320.016 321.237 324.966 321.237 331.059Z" fill="#DFEBFD"/>
<path d="M215.466 331.059C215.466 341.422 210.108 352.846 210.108 352.846C210.108 352.846 202.167 352.846 201.052 352.846C193.11 352.846 186.664 343.081 186.664 331.059C186.664 319.037 202.167 309.272 210.108 309.272C218.05 309.272 215.466 319.009 215.466 331.059Z" fill="#163560"/>
<path d="M210.108 352.846C218.054 352.846 224.496 343.092 224.496 331.059C224.496 319.026 218.054 309.272 210.108 309.272C202.163 309.272 195.721 319.026 195.721 331.059C195.721 343.092 202.163 352.846 210.108 352.846Z" fill="#163560"/>
<path d="M454.34 331.059C454.34 341.422 448.982 352.846 448.982 352.846C448.982 352.846 441.041 352.846 439.925 352.846C431.984 352.846 425.538 343.081 425.538 331.059C425.538 319.037 441.041 309.272 448.982 309.272C456.951 309.272 454.34 319.009 454.34 331.059Z" fill="#163560"/>
<path d="M463.397 331.059C463.397 343.081 456.951 352.846 449.009 352.846C441.068 352.846 434.622 343.081 434.622 331.059C434.622 319.037 441.068 309.272 449.009 309.272C456.951 309.272 463.397 319.009 463.397 331.059Z" fill="#163560"/>
<path d="M172.331 318.547C172.304 327.659 179.702 335.03 188.786 335.03H295.372C295.073 333.235 294.91 331.385 294.91 329.481C294.91 315.392 303.368 303.968 313.757 303.968C324.174 303.968 332.632 315.392 332.632 329.481C332.632 331.385 332.795 333.072 332.496 334.84L394.452 335.03C394.452 335.03 396.954 307.232 396.655 293.278C396.41 281.147 396.41 257.374 397.117 251.553C397.117 250.683 337.065 250.574 321.916 250.52C319.849 250.493 318.626 250.493 318.49 250.493L318.272 250.629L318.054 250.792C315.253 252.75 299.588 263.739 289.851 270.158C281.284 275.816 217.968 278.128 193.137 278.808C186.964 278.971 183.156 279.025 183.156 279.025C183.156 279.025 179.756 282.507 176.765 288.001C174.453 292.272 172.413 297.739 172.359 303.723C172.331 307.449 172.304 311.937 172.304 316.344C172.331 317.105 172.331 317.84 172.331 318.547Z" fill="#FBB667"/>
<path d="M228.929 252.75L311.881 250.955C313.812 250.955 314.954 250.874 315.743 249.133L337.555 203.872C338.235 202.376 337.12 200.662 335.488 200.662H247.396C245.465 200.662 243.697 201.805 242.908 203.6L228.113 237.437L224.414 245.896C223.027 249.133 225.366 252.75 228.929 252.75Z" fill="#DCEAFF"/>
<path d="M561.198 163.181H380.636V337.288H561.198V163.181Z" fill="#E89F56"/>
<path d="M267.821 318.602C267.848 320.043 267.903 321.403 267.984 322.6C268.583 330.597 276.633 337.234 276.633 337.234H295.399C295.1 335.438 294.937 333.589 294.937 331.685C294.937 326.897 295.916 322.41 297.602 318.574C300.92 311.122 306.931 306.144 313.785 306.144C320.665 306.144 326.676 311.122 329.994 318.574C331.68 322.41 332.659 326.87 332.659 331.685C332.659 333.589 332.523 335.438 332.197 337.234H399.755V163.181H345.524V197.725C345.524 197.725 329.26 235.941 321.944 252.777C320.122 256.966 318.87 259.822 318.517 260.448C316.885 263.549 279.081 282.67 272.853 288.328C269.344 291.429 267.631 307.694 267.821 318.602Z" fill="#E89F56"/>
<path d="M344.898 208.958L327.982 250.629C327.574 251.662 328.308 252.778 329.423 252.778H357.627C357.627 252.778 363.882 251.717 364.698 238.933C365.568 225.278 365.541 201.696 365.541 201.696L352.133 201.642C347.047 202.376 346.258 205.205 344.898 208.958Z" fill="#AEC3FF"/>
<path d="M357.273 253.893H330.81C329.613 253.893 328.471 253.294 327.791 252.288C327.111 251.281 326.975 250.03 327.438 248.888L343.81 208.523L343.973 208.088C345.252 204.497 346.367 201.397 351.725 200.499C351.915 200.472 352.133 200.445 352.35 200.445L363.039 200.499C365.024 200.499 366.656 202.131 366.656 204.144C366.629 210.971 366.493 228.053 365.813 238.96C365.133 249.921 360.509 252.859 358.578 253.621C358.17 253.811 357.735 253.893 357.273 253.893ZM352.35 202.757C352.269 202.757 352.187 202.757 352.133 202.784C348.08 203.464 347.346 205.504 346.122 208.904L345.932 209.393L329.532 249.758C329.369 250.193 329.396 250.656 329.668 251.037C329.94 251.417 330.348 251.635 330.81 251.635H357.273C357.436 251.635 357.599 251.608 357.763 251.553C358.959 251.091 362.957 248.806 363.556 238.851C364.235 227.998 364.371 210.998 364.399 204.171C364.399 203.409 363.8 202.811 363.039 202.784L352.35 202.757Z" fill="#163560"/>
<path d="M183.21 279.107H282.154L318.299 250.683L318.517 250.547H218.676L190.254 273.395L183.21 279.107Z" fill="#FBB667"/>
<path d="M175.568 290.15C176.139 291.102 176.139 291.184 176.955 291.32L190.826 293.904C191.995 294.121 192.893 292.081 192.593 289.987L191.234 280.657L191.179 280.44L190.907 278.536C190.662 276.904 189.928 275.625 189.058 275.299L188.242 275L182.476 279.651C181.606 280.358 180.844 281.201 180.246 282.181C179.24 283.785 177.472 286.669 175.568 290.15Z" fill="#F9DDBF"/>
<path d="M561.198 163.181H343.375V195.63H561.198V163.181Z" fill="#FBB667"/>
<path d="M269.344 298.011L278.292 297.114C281.42 296.814 283.949 294.448 284.493 291.374L286.56 280.059C286.614 279.869 286.614 279.706 286.614 279.515C280.25 283.187 274.865 286.451 272.825 288.274C271.357 289.661 270.16 293.36 269.344 298.011Z" fill="#ED9740"/>
<path d="M252.373 299.697L269.344 298.011H269.371L278.319 297.113C281.447 296.814 283.976 294.448 284.52 291.374L286.587 280.059C286.642 279.869 286.642 279.705 286.642 279.515V279.488C286.75 277.094 284.575 275.163 282.127 275.653L255.691 281.011C254.005 281.365 252.672 282.616 252.21 284.248L249.109 295.726C248.484 297.902 250.197 299.942 252.373 299.697Z" fill="#F9DDBF"/>
<path d="M242.147 195.63H345.252C345.252 195.63 345.66 189.021 348.243 181.486C350.555 174.822 354.526 167.397 361.489 163.181H277.231C263.497 163.181 251.34 170.525 246.498 181.486C246.281 181.949 246.063 182.384 245.9 182.846C244.459 186.654 243.153 190.925 242.147 195.63Z" fill="#FBB667"/>
<path d="M269.317 298.011L278.292 297.114C281.42 296.814 283.949 294.448 284.493 291.374L286.56 280.059C286.614 279.869 286.614 279.678 286.614 279.515C280.25 283.187 274.865 286.478 272.825 288.301C271.357 289.661 270.16 293.36 269.317 298.011Z" fill="#E5BD98"/>
<path d="M172.331 320.778C172.304 329.89 180.055 337.261 189.575 337.261H295.372C295.073 335.466 294.91 333.616 294.91 331.712C294.91 326.925 295.889 322.437 297.575 318.602H172.359C172.331 319.336 172.331 320.043 172.331 320.778Z" fill="#E89F56"/>
<path d="M242.011 282.126H201.541C200.236 282.126 199.257 283.867 199.447 285.798L200.889 299.861C201.106 301.928 202.276 303.451 203.663 303.451H237.007C239.155 303.451 241.032 301.329 241.657 298.229L244.051 286.261C244.486 284.221 243.452 282.126 242.011 282.126Z" fill="#E89F56"/>
<path d="M336.168 230.256C336.168 230.256 334.618 247.963 343.375 252.805H330.375C328.797 252.805 327.71 251.2 328.308 249.731L336.168 230.256Z" fill="#163560"/>
<path d="M333.775 242.115C333.775 242.115 337.473 239.504 337.773 237.328V249.704H332.959L333.775 242.115Z" fill="#163560"/>
<path d="M337.773 237.3V250.955C337.773 252.179 338.072 253.348 338.588 254.382C339.84 256.884 342.45 258.625 345.442 258.625H347.89C352.078 258.625 355.532 255.198 355.532 250.982V237.328C355.532 235.886 355.124 234.553 354.417 233.411C354.417 233.384 354.417 233.384 354.417 233.384C353.057 231.153 350.637 229.684 347.89 229.684H345.442C341.199 229.657 337.773 233.112 337.773 237.3Z" fill="#2B478B"/>
<path d="M338.588 254.382C339.84 256.885 342.45 258.625 345.442 258.625H347.89C352.078 258.625 355.532 255.198 355.532 250.982V237.328C355.532 235.886 355.124 234.553 354.417 233.411C354.281 234.227 351.018 252.968 338.588 254.382Z" fill="#163560"/>
<path d="M502.235 337.288H546.648C547.6 333.289 550.401 304.729 525.515 304.729C502.887 304.729 501.228 330.76 502.235 337.288Z" fill="#0C2544"/>
<path d="M532.75 331.059C532.75 341.422 527.392 352.846 527.392 352.846C527.392 352.846 519.451 352.846 518.335 352.846C510.394 352.846 503.948 343.081 503.948 331.059C503.948 319.037 519.451 309.272 527.392 309.272C535.334 309.272 532.75 319.009 532.75 331.059Z" fill="#163560"/>
<path d="M527.392 352.846C535.338 352.846 541.779 343.092 541.779 331.059C541.779 319.026 535.338 309.272 527.392 309.272C519.446 309.272 513.005 319.026 513.005 331.059C513.005 343.092 519.446 352.846 527.392 352.846Z" fill="#2B478B"/>
<path d="M534.98 331.059C534.98 336.608 532.016 341.123 528.344 341.123C524.672 341.123 521.708 336.608 521.708 331.059C521.708 325.51 524.672 320.995 528.344 320.995C532.016 320.995 534.98 325.51 534.98 331.059Z" fill="#DFEBFD"/>
<path d="M242.147 195.63H347.563C347.563 195.63 345.66 189.021 348.243 181.486H246.498C246.281 181.949 246.063 182.384 245.9 182.846C244.459 186.654 243.153 190.925 242.147 195.63Z" fill="#E89F56"/>
<path d="M435.9 252.75H386.7C384.334 252.75 382.43 250.846 382.43 248.48V205.885C382.43 203.518 384.334 201.614 386.7 201.614H435.9C438.267 201.614 440.17 203.518 440.17 205.885V248.48C440.17 250.846 438.239 252.75 435.9 252.75Z" fill="#AEC3FF"/>
<path d="M508.762 252.75H458.529C456.462 252.75 454.775 251.064 454.775 248.997V205.368C454.775 203.301 456.462 201.614 458.529 201.614H508.762C510.829 201.614 512.515 203.301 512.515 205.368V248.997C512.515 251.064 510.829 252.75 508.762 252.75Z" fill="#AEC3FF"/>
<path d="M687.829 322.545C676.896 342.048 665.663 353.717 665.663 353.717L589.375 353.744L576.021 352.737C576.021 352.737 585.73 333.888 607.27 335.139C628.784 336.39 627.94 324.422 647.794 316.48C667.594 308.51 687.829 322.545 687.829 322.545Z" fill="#A8D29F"/>
<path opacity="0.7" d="M192.43 132.989C187.834 128.637 183.537 133.641 179.865 138.646C176.194 143.651 170.591 136.715 169.177 134.131C167.79 131.574 155.524 141.584 155.279 141.801C162.676 127.739 170.156 117.321 176.928 117.974C181.905 118.464 187.1 124.366 192.43 132.989Z" fill="#F8FCFF"/>
<path d="M104.556 216.68C98.8172 207.404 90.794 211.729 84.0491 219.454C77.3042 227.179 79.5343 204.222 79.5343 200.849C79.5343 197.476 67.4587 203.243 67.4587 203.243C74.8564 193.859 81.7917 186.841 86.0073 186.868C92.6706 186.923 98.6268 202.835 104.556 216.68Z" fill="#F8FCFF"/>
<path d="M284.602 250.465H238.203C240.216 240.429 243.779 225.197 246.879 224.081C247.478 223.864 248.402 223.646 249.545 223.429C250.66 223.211 251.992 223.021 253.488 222.857C256.534 222.531 260.179 222.313 263.878 222.395C267.386 222.476 270.922 222.83 273.968 223.592C277.15 224.381 279.815 225.632 281.338 227.509C283.079 229.63 283.976 233.493 284.412 237.899C284.439 238.253 284.466 238.579 284.493 238.933C284.602 240.374 284.656 241.897 284.684 243.393C284.684 243.665 284.684 243.937 284.684 244.237C284.738 246.358 284.711 248.453 284.602 250.465Z" fill="#B5453C"/>
<path d="M320.937 222.667C320.801 222.667 320.665 222.694 320.557 222.694C320.421 222.694 320.285 222.721 320.121 222.721C320.04 222.721 319.958 222.721 319.85 222.749C319.034 222.83 318.272 222.912 317.565 222.993C315.09 223.32 313.132 223.701 312.125 224.054C311.282 224.353 310.385 225.713 309.515 227.753C308.807 229.413 308.1 231.507 307.393 233.819C306.768 235.968 306.142 238.307 305.571 240.673C305.517 240.891 305.462 241.136 305.408 241.353C305.109 242.632 304.809 243.937 304.537 245.189C304.429 245.705 304.32 246.195 304.211 246.685C303.939 247.99 303.667 249.241 303.422 250.438H312.397C314.328 250.438 316.069 249.35 316.885 247.691L320.502 240.021L322.95 234.798L323.766 233.03L324.228 232.051L324.582 231.289L328.743 222.395C326.05 222.368 323.385 222.477 320.937 222.667Z" fill="#B5453C"/>
<path d="M273.995 223.592C271.493 216.928 267.413 210.4 264.775 209.04C262.11 207.652 259.961 208.523 259.961 208.523C251.802 207.571 249.409 217.091 249.517 220.382C249.545 221.388 249.599 222.395 249.572 223.456C249.49 225.876 248.892 228.488 246.363 231.452C242.12 236.403 243.153 239.476 245.927 241.326C246.906 241.979 248.076 242.496 249.327 242.904C249.762 243.04 250.197 243.176 250.66 243.284C251.693 243.556 252.7 243.747 253.651 243.883C256.045 244.264 257.921 244.291 257.921 244.291C258.057 237.736 263.334 237.137 266.679 237.763C267.359 237.899 267.984 238.089 268.447 238.28C269.1 238.552 269.48 238.851 269.371 239.041C269.752 239.123 270.106 239.204 270.459 239.259C272.662 239.585 274.158 239.041 275.083 237.899C277.177 235.26 276.171 229.385 273.995 223.592Z" fill="#163560"/>
<path d="M251.639 250.465H248.81C248.946 250.329 249.082 250.221 249.218 250.139C249.626 249.867 250.061 249.731 250.497 249.813C250.741 249.84 250.959 249.949 251.204 250.085C251.394 250.193 251.53 250.302 251.639 250.465Z" fill="#EBEEF2"/>
<path d="M268.827 250.465H250.633C250.578 250.247 250.551 250.03 250.497 249.785C250.333 248.724 250.225 247.609 250.306 246.358C250.388 245.324 250.497 244.263 250.633 243.257C251.367 238.089 252.863 233.655 252.999 233.275C252.999 233.247 252.999 233.247 252.999 233.247C252.999 233.247 253.679 233.057 254.467 232.839C255.99 232.404 257.024 230.99 257.024 229.412V229.358C257.024 228.624 256.997 227.889 256.969 227.263C256.969 227.073 256.942 226.91 256.942 226.747V226.583C256.942 226.502 256.942 226.42 256.942 226.339C256.942 226.311 256.942 226.284 256.942 226.257C256.942 226.121 256.915 226.012 256.915 225.903C256.915 225.876 256.915 225.849 256.915 225.822C256.915 225.795 256.915 225.74 256.915 225.713V225.686C256.915 225.604 256.915 225.577 256.915 225.577L263.062 224.353L263.442 224.271C263.442 226.801 263.823 228.814 264.313 230.174C264.721 231.316 265.7 232.132 266.869 232.404C267.25 232.486 267.93 232.567 268.256 232.676C268.256 232.676 268.338 234.961 268.474 238.252C268.583 241.489 268.746 245.705 268.855 249.567C268.8 249.894 268.827 250.166 268.827 250.465Z" fill="#FFB27D"/>
<path d="M256.888 225.604C256.888 225.604 257.024 227.536 257.024 229.358C260.478 229.249 262.3 226.121 263.034 224.38L256.888 225.604Z" fill="#E8945B"/>
<path d="M255.718 227.345C255.718 227.345 263.878 227.481 263.878 222.395C263.878 217.308 264.938 213.908 259.744 213.609C254.522 213.31 253.515 215.241 253.107 216.955C252.7 218.641 253.597 227.182 255.718 227.345Z" fill="#FFB27D"/>
<path d="M256.018 213.473C256.018 213.473 258.248 219.43 261.675 220.328C265.101 221.225 266.597 220.3 266.597 220.3C266.597 220.3 263.959 218.206 263.415 214.561C263.415 214.561 257.704 210.644 256.018 213.473Z" fill="#163560"/>
<path d="M256.589 213.963C256.589 213.963 254.93 214.588 254.25 215.785C253.57 216.955 253.026 218.532 253.135 220.463C253.135 220.463 251.448 216.411 253.352 214.126C255.365 211.678 256.589 213.963 256.589 213.963Z" fill="#163560"/>
<path d="M257.486 224.19C257.486 224.19 256.915 224.924 255.8 224.87C254.902 224.816 254.549 224.027 254.549 224.027C254.549 224.027 256.208 223.646 257.486 224.19Z" fill="#EBF3FA"/>
<path d="M270.079 250.465H268.447C268.447 250.438 268.447 250.438 268.447 250.411C268.447 250.057 268.42 249.704 268.365 249.323L268.8 249.595L270.079 250.465Z" fill="#EBEEF2"/>
<path d="M257.323 224.326C257.323 224.326 257.187 224.924 255.691 224.843C255.691 224.843 254.44 224.761 254.467 224.108C254.467 224.108 255.691 223.619 257.323 224.326Z" fill="white"/>
<path d="M277.041 244.78C276.47 242.006 275.844 239.504 275.137 238.116C275.11 238.035 275.056 237.98 275.028 237.899C272.581 233.302 268.202 232.731 268.202 232.731C259.608 239.748 252.999 233.275 252.999 233.275C252.999 233.275 249.354 234.118 248.266 235.75C247.858 236.376 246.934 238.688 245.9 241.326C244.459 245.025 242.827 249.323 242.147 250.465H249.273H254.005H268.474H271.955H278.129C277.775 248.616 277.422 246.63 277.041 244.78Z" fill="white"/>
<path d="M321.237 232.676C317.157 232.404 312.697 234.009 312.86 233.628C312.887 233.547 312.914 233.465 312.969 233.411C312.969 233.411 310.358 233.384 307.42 233.846C304.673 234.281 301.655 235.125 300.213 236.838C299.941 237.165 299.56 237.6 299.125 238.089C298.146 239.177 296.841 240.592 295.426 242.115C292.951 244.835 290.15 247.99 288.355 250.493H304.51H305.245H312.425C314.356 250.493 316.096 249.405 316.912 247.745L320.529 240.075L322.977 234.853L323.793 233.084C322.868 232.867 322.025 232.731 321.237 232.676Z" fill="#ABDDDA"/>
<path d="M324.228 232.051L323.766 233.03L322.95 234.798C321.128 235.342 318.653 235.832 316.042 235.669C315.96 235.669 315.906 235.669 315.824 235.669C315.063 235.614 314.274 235.506 313.485 235.315C313.485 235.315 313.159 235.206 312.941 234.934C312.751 234.69 312.615 234.282 312.86 233.683C312.887 233.602 312.914 233.52 312.969 233.466C312.669 232.242 312.697 232.35 312.533 231.426C312.506 231.235 312.452 231.018 312.425 230.827C312.397 230.664 312.37 230.474 312.343 230.338C312.234 229.794 312.18 229.331 312.125 228.978C312.125 228.95 312.125 228.896 312.098 228.869C312.098 228.814 312.098 228.76 312.071 228.706C312.071 228.678 312.071 228.651 312.071 228.651C312.044 228.298 312.017 228.107 312.017 228.107L312.18 227.971L315.987 224.517L317.565 223.075L319.333 221.443L319.714 221.09C319.714 221.498 319.741 221.933 319.795 222.314C319.822 222.477 319.822 222.64 319.849 222.803C319.904 223.293 319.985 223.782 320.094 224.245C320.611 226.72 321.59 228.678 322.596 230.147C323.168 230.882 323.739 231.534 324.228 232.051Z" fill="#FFB27D"/>
<path d="M320.04 224.435C320.04 224.435 317.647 229.63 312.533 231.371C312.125 229.249 311.908 227.073 311.908 227.073L315.987 224.489L320.04 224.435Z" fill="#ED985F"/>
<path d="M307.937 227.563C307.937 227.563 319.197 229.821 320.502 222.885C321.808 215.949 324.147 211.597 317.021 209.856C309.895 208.115 307.991 210.509 306.985 212.712C305.979 214.915 305.054 226.801 307.937 227.563Z" fill="#FFB27D"/>
<path d="M325.126 209.312C325.235 209.203 325.479 209.121 325.996 209.094C325.996 209.094 325.588 208.822 325.017 208.768C324.935 208.033 324.582 206.728 323.331 206.347C323.331 206.347 323.984 206.728 324.065 207.517C322.651 205.966 319.55 204.742 310.847 205.123C299.37 205.613 302.878 213.065 304.32 214.017C305.761 214.969 309.596 212.685 312.343 213.011C315.09 213.337 315.471 217.336 316.395 217.907C317.32 218.478 316.967 217.499 318.272 216.982C319.55 216.465 319.605 218.56 319.197 219.92C318.789 221.28 320.448 223.129 320.448 223.129C320.448 223.129 320.448 223.129 322.27 221.307C324.092 219.485 326.051 211.515 325.316 209.774C325.262 209.638 325.207 209.475 325.126 209.312Z" fill="#2C3A64"/>
<path d="M322.624 230.093C322.46 231.099 321.916 231.97 321.237 232.677C319.414 234.608 316.45 235.533 316.042 235.642C316.015 235.642 316.015 235.642 316.015 235.642C316.395 237.709 316.015 241.109 316.015 241.109C317.701 241.027 319.197 240.592 320.502 239.994L322.95 234.771L323.766 233.003L324.228 232.024L324.582 231.262C323.249 230.283 322.624 230.093 322.624 230.093Z" fill="#91CECF"/>
<path d="M315.988 235.669C315.988 235.669 312.289 237.301 311.799 240.238C311.799 240.238 310.602 237.981 311.092 236.512C311.582 235.043 312.941 233.411 312.941 233.411C312.941 233.411 312.697 235.206 315.988 235.669Z" fill="#91CECF"/>
<path d="M309.569 245.678C309.134 245.08 308.671 244.509 308.182 243.965C307.747 243.448 307.257 242.986 306.768 242.523C306.332 242.115 305.897 241.734 305.435 241.381C305.326 241.299 305.217 241.19 305.081 241.109C303.286 239.776 301.274 238.742 299.125 238.062C297.194 237.437 295.127 237.11 292.979 237.11C290.177 237.11 287.512 237.682 285.064 238.715C284.874 238.797 284.711 238.878 284.52 238.96C282.834 239.722 281.284 240.728 279.869 241.898C278.836 242.768 277.884 243.72 277.041 244.781C275.681 246.467 274.566 248.398 273.804 250.466H279.026C280.332 247.909 282.317 245.76 284.738 244.264C287.131 242.768 289.96 241.925 292.979 241.925C293.822 241.925 294.638 241.979 295.426 242.115C298.853 242.659 301.926 244.318 304.238 246.739C304.51 247.011 304.782 247.31 305.027 247.61C305.353 248.018 305.68 248.453 305.979 248.888C306.332 249.405 306.632 249.922 306.904 250.493H312.125C311.473 248.752 310.63 247.147 309.569 245.678Z" fill="#233862"/>
<path d="M306.441 222.586C306.441 222.586 306.55 223.81 307.257 224.027C307.964 224.245 309.052 224.19 309.515 223.755C309.977 223.293 309.977 223.293 309.977 223.293C309.977 223.293 307.284 222.341 306.441 222.586Z" fill="white"/>
<path d="M306.849 239.721C306.849 239.721 302.226 242.958 303.042 244.345C303.857 245.733 309.895 246.059 310.602 245.379C311.309 244.699 308.291 238.606 306.849 239.721Z" fill="#FFB27D"/>
<path d="M279.57 241.707C279.57 241.707 283.405 244.345 284.629 243.502C285.853 242.659 285.336 238.334 284.575 237.953C283.813 237.573 278.265 240.891 279.57 241.707Z" fill="#FFB27D"/>
<path d="M509.143 252.288H462.336C463.315 248.534 464.866 243.04 466.633 238.552C466.769 238.198 466.905 237.845 467.041 237.518C468.265 234.553 469.571 232.16 470.822 231.235C470.849 231.208 470.876 231.208 470.876 231.181C471.094 231.017 471.311 230.909 471.556 230.854C472.209 230.691 473.215 230.501 474.493 230.337C475.527 230.201 476.696 230.065 478.002 229.957C479.552 229.821 481.293 229.712 483.115 229.657C483.469 229.657 483.795 229.63 484.148 229.63C484.638 229.63 485.128 229.603 485.617 229.603C486.297 229.603 486.977 229.603 487.684 229.603C488.5 229.603 489.289 229.63 490.105 229.657C496.55 229.875 502.833 230.8 505.743 233.112C505.852 233.193 505.961 233.275 506.042 233.357C509.687 236.675 509.687 245.678 509.143 252.288Z" fill="#91CECF"/>
<path d="M472.508 241.925C476.125 241.354 477.349 236.784 474.521 234.472C471.638 232.133 468.945 229.63 468.32 228.026C466.851 224.299 465.953 216.221 465.953 216.221L463.37 217.01C463.37 217.01 462.282 225.931 463.614 230.963C464.593 234.608 468.02 238.878 469.815 240.946C470.468 241.707 471.502 242.088 472.508 241.925Z" fill="#FFB27D"/>
<path d="M463.342 217.009C463.342 217.009 463.478 213.392 464.594 212.032C465.709 210.672 466.525 209.475 467.613 210.073C468.7 210.672 467.041 213.963 467.259 214.099C467.477 214.235 468.945 212.929 468.972 213.337C469 213.745 467.232 215.486 466.878 215.677C466.525 215.867 465.926 216.193 465.926 216.193L463.342 217.009Z" fill="#FFB27D"/>
<path d="M477.458 234.608C477.458 234.608 475.717 234.689 475.037 234.309C472.807 233.085 469.87 230.256 469.87 230.256C469.87 230.256 463.941 236.539 468.075 244.046C468.32 244.427 477.458 234.608 477.458 234.608Z" fill="#F77D48"/>
<path d="M492.09 252.288H465.981C466.579 249.35 467.286 246.549 468.129 244.046C468.537 242.795 469 241.598 469.462 240.538C470.931 237.274 472.698 235.043 474.82 234.717C474.929 234.69 475.037 234.69 475.173 234.69C475.636 234.662 476.18 234.635 476.778 234.635H476.805C477.023 234.635 477.24 234.635 477.485 234.635C479.661 234.662 482.381 234.934 485.019 235.914C485.236 235.995 485.481 236.077 485.699 236.186C486.977 236.73 488.201 237.464 489.316 238.416C489.833 238.851 490.295 239.341 490.757 239.858C491.465 240.728 491.764 244.89 491.873 247.99C491.954 249.976 491.954 251.499 491.954 251.499C491.954 251.499 491.981 251.771 492.09 252.288Z" fill="#F77D48"/>
<path d="M475.282 218.778C475.336 218.669 478.111 214.643 483.006 213.99C486.977 213.474 490.567 216.384 491.029 220.355C491.492 224.354 490.703 229.494 484.148 231.099L475.282 218.778Z" fill="#2C3A64"/>
<path d="M479.335 238.117C481.483 239.096 484.04 238.171 485.073 236.05C485.073 236.05 484.284 234.146 484.148 231.126C484.094 229.848 484.148 228.379 484.42 226.774L477.947 229.331C477.947 229.331 478.029 229.93 478.056 230.773C478.083 231.698 478.002 232.922 477.621 234.064V234.091C477.077 235.696 477.811 237.437 479.335 238.117Z" fill="#FFB27D"/>
<path d="M477.621 234.064C481.129 234.309 484.148 231.126 484.148 231.126L478.056 230.773C478.056 231.697 477.975 232.921 477.621 234.064Z" fill="#EA9C68"/>
<path d="M476.098 231.942C476.098 231.942 482.925 234.472 485.889 229.168C489.098 223.429 486.678 218.75 484.312 218.234C479.634 217.173 476.696 218.696 475.69 220.546C474.657 222.341 472.345 230.582 476.098 231.942Z" fill="#FFB27D"/>
<path d="M479.199 229.086C479.199 229.086 478.845 229.766 477.023 229.195C477.023 229.195 475.5 228.706 475.772 227.89C475.772 227.89 477.404 227.699 479.199 229.086Z" fill="white"/>
<path d="M481.401 218.778C481.401 218.778 480.531 225.224 486.569 227.727C488.99 228.733 490.594 218.887 485.563 216.738C480.531 214.589 475.418 216.738 474.711 220.165C473.977 223.592 474.412 224.327 474.412 224.327C474.412 224.327 477.05 217.853 481.401 218.778Z" fill="#2C3A64"/>
<path d="M489.343 219.947C489.588 219.077 489.425 218.832 489.126 218.75C488.854 218.669 488.582 218.805 488.337 219.648C488.092 220.518 488.391 221.362 488.391 221.362C488.391 221.362 489.098 220.818 489.343 219.947Z" fill="#F99746"/>
<path d="M487.358 219.947C486.651 219.376 486.379 219.43 486.188 219.675C485.998 219.893 485.998 220.192 486.705 220.763C487.412 221.334 488.282 221.389 488.282 221.389C488.282 221.389 488.038 220.491 487.358 219.947Z" fill="#F99746"/>
<path d="M490.05 220.682C490.948 220.546 491.165 220.763 491.193 221.035C491.22 221.307 491.084 221.579 490.186 221.688C489.289 221.824 488.5 221.389 488.5 221.389C488.5 221.389 489.153 220.818 490.05 220.682Z" fill="#F99746"/>
<path d="M489.642 222.667C490.05 223.456 489.914 223.755 489.67 223.864C489.425 224 489.126 223.918 488.718 223.13C488.31 222.341 488.446 221.443 488.446 221.443C488.446 221.443 489.234 221.878 489.642 222.667Z" fill="#F99746"/>
<path d="M486.705 221.851C485.943 222.314 485.916 222.613 486.052 222.858C486.188 223.102 486.487 223.211 487.249 222.722C488.011 222.259 488.337 221.416 488.337 221.416C488.337 221.416 487.467 221.389 486.705 221.851Z" fill="#F99746"/>
<path d="M488.799 221.362C488.799 221.144 488.636 220.981 488.446 220.981C488.228 220.981 488.065 221.144 488.065 221.334C488.065 221.552 488.228 221.715 488.418 221.715C488.636 221.742 488.799 221.579 488.799 221.362Z" fill="#FFB93E"/>
<path d="M494.293 246.603C494.293 248.561 494.13 250.601 493.64 252.288H487.983C488.092 251.445 487.956 250.193 487.684 248.779C487.385 247.229 486.895 245.488 486.351 243.747C485.59 241.272 487.14 238.987 489.289 238.389C490.186 238.144 491.193 238.198 492.144 238.634C493.069 239.069 493.722 239.939 493.858 240.973C494.075 242.36 494.266 244.427 494.293 246.603Z" fill="#FFB27D"/>
<path d="M485.073 236.077C485.073 236.077 490.241 236.811 492.743 238.525C495.218 240.238 496.387 244.645 496.387 244.645C496.387 244.645 492.389 249.758 486.079 248.643L485.073 236.077Z" fill="#F77D48"/>
<path d="M487.439 215.459C487.439 215.459 492.471 213.555 497.91 215.459C503.35 217.363 500.168 223.429 502.207 225.224C504.247 227.019 506.831 231.861 505.281 234.635C503.73 237.409 498.318 238.633 494.293 237.627C490.975 236.811 487.847 231.697 491.192 227.808C495.571 222.721 493.667 216.193 487.412 217.499L487.439 215.459Z" fill="#2C3A64"/>
<path d="M508.245 253.131H459.045C456.217 253.131 453.932 250.846 453.932 248.017V205.422C453.932 202.593 456.217 200.309 459.045 200.309H508.245C511.074 200.309 513.358 202.593 513.358 205.422V248.017C513.358 250.819 511.046 253.131 508.245 253.131ZM459.018 201.995C457.142 201.995 455.591 203.545 455.591 205.422V248.017C455.591 249.894 457.142 251.445 459.018 251.445H508.218C510.095 251.445 511.645 249.894 511.645 248.017V205.422C511.645 203.545 510.095 201.995 508.218 201.995H459.018Z" fill="#2C3A64"/>
<path d="M441.422 234.172C440.932 234.852 440.334 235.668 439.681 236.566V248.072C439.681 249.921 438.158 251.444 436.308 251.444H395.757C396.519 248.507 397.716 244.182 399.103 240.102C399.13 239.993 399.184 239.884 399.211 239.776C400.218 236.865 401.333 234.118 402.448 232.16C402.475 232.132 402.502 232.078 402.529 232.024C403.427 230.473 404.352 229.412 405.222 229.195C405.848 229.032 406.799 228.868 407.996 228.705C408.54 228.624 409.138 228.569 409.791 228.488C410.471 228.406 411.233 228.352 411.994 228.27C413.517 228.134 415.176 228.052 416.917 227.998C417.76 227.971 418.603 227.944 419.473 227.944C419.936 227.944 420.371 227.944 420.833 227.944C421.241 227.944 421.676 227.944 422.111 227.944C423.091 227.971 424.042 227.998 425.022 228.025C429.428 228.243 433.643 228.814 436.662 229.956C437.913 230.419 438.947 230.99 439.708 231.67C440.388 232.323 440.959 233.166 441.422 234.172Z" fill="#91CECF"/>
<path d="M408.839 239.667C408.839 239.667 398.885 228.189 398.368 226.72C397.851 225.251 396.247 212.522 396.247 212.522L393.527 212.494C393.527 212.494 392.14 227.346 392.901 230.365C393.663 233.384 405.331 247.338 405.331 247.338L408.839 239.667Z" fill="#FFB27D"/>
<path d="M410.933 236.512C411.287 236.023 411.559 235.506 411.749 234.935C412.212 233.683 412.32 232.296 412.348 231.263C412.348 230.311 412.266 229.658 412.266 229.658L419.609 227.019C419.256 228.814 419.147 230.447 419.174 231.861C419.228 235.261 420.044 237.41 420.044 237.41L419.908 237.736C420.697 237.927 421.54 238.144 422.438 238.389L412.891 242.877L407.751 237.029C407.778 237.029 408.567 236.539 410.933 236.512Z" fill="#FFB27D"/>
<path d="M411.776 234.934C415.693 235.342 419.201 231.861 419.201 231.861L412.375 231.262C412.348 232.296 412.212 233.683 411.776 234.934Z" fill="#EA9C68"/>
<path d="M448.357 217.227C448.357 217.227 444.848 229.44 442.373 232.867C442.101 233.221 441.802 233.656 441.449 234.173C440.959 234.853 440.361 235.669 439.708 236.566C438.43 238.307 436.907 240.293 435.329 242.088C433.262 244.454 431.086 246.522 429.237 247.365C428.639 247.637 428.095 247.773 427.578 247.773C427.197 247.773 426.871 247.691 426.572 247.61C425.565 247.283 424.994 246.467 424.695 245.542C424.042 243.502 424.641 240.81 424.641 240.81C424.641 240.81 425.239 240.211 426.191 239.286C427.333 238.171 428.965 236.594 430.733 234.989C432.745 233.139 434.894 231.262 436.635 229.984C437.097 229.63 437.559 229.331 437.94 229.086C437.94 229.086 438.675 227.781 439.681 226.013C441.748 222.368 444.957 216.683 445.311 216.166C445.338 216.139 445.365 216.085 445.392 216.085C446.018 215.595 448.03 217.064 448.302 217.254C448.33 217.227 448.357 217.227 448.357 217.227Z" fill="#FFB27D"/>
<path d="M410.145 232.514C410.145 232.514 417.678 235.587 421.187 229.712C424.967 223.374 422.383 218.098 419.772 217.418C414.578 216.085 411.232 217.69 410.036 219.702C408.839 221.715 405.983 230.855 410.145 232.514Z" fill="#FFB27D"/>
<path d="M414.061 229.413C414.061 229.413 413.109 230.501 411.096 229.766C411.096 229.766 409.274 229.195 409.873 227.971C409.9 227.971 412.13 227.808 414.061 229.413Z" fill="white"/>
<path d="M419.5 231.697C419.5 231.697 420.752 229.113 420.833 227.672C420.833 227.672 423.199 225.333 422.111 224.544C421.024 223.755 420.18 225.197 419.936 224.87C419.691 224.544 419.936 219.376 418.467 219.349C416.998 219.322 411.45 220.301 409.383 217.962C407.316 215.65 413.979 208.496 423.226 212.766C432.446 217.064 429.101 227.509 419.5 231.697Z" fill="#2C3A64"/>
<path d="M427.415 217.581C427.415 217.581 428.013 216.33 427.66 215.35C427.66 215.35 427.469 216.629 426.898 217.118C426.327 217.608 427.415 217.581 427.415 217.581Z" fill="#2C3A64"/>
<path d="M427.333 216.656C427.333 216.656 428.53 216.683 428.992 217.662C428.992 217.662 428.231 216.982 427.306 217.472L427.333 216.656Z" fill="#2C3A64"/>
<path d="M430.733 241.735L429.237 247.365L428.666 249.541C428.666 249.568 428.666 249.568 428.666 249.595L428.367 250.711L428.176 251.418H400.68L401.605 247.202L402.366 243.693L403.835 237.056C403.835 237.056 404.651 236.784 406.174 236.539C407.343 236.349 408.893 236.186 410.852 236.131C410.824 236.267 410.824 236.403 410.824 236.539C410.797 237.491 411.287 238.362 413.136 238.824C415.856 239.504 418.521 238.199 419.99 237.165C420.044 237.138 420.072 237.111 420.126 237.083C422.084 237.6 424.097 238.307 426.218 239.314C427.66 239.967 429.183 240.783 430.733 241.735Z" fill="#F77D48"/>
<path d="M435.384 243.611C435.384 243.611 429.4 246.685 428.639 249.595C428.639 249.595 420.86 242.768 420.099 237.056C420.099 237.056 421.839 237.138 423.906 238.062C423.906 238.062 425.021 237.709 426.137 237.818L430.733 234.962C430.733 234.962 435.465 236.866 435.384 243.611Z" fill="#F77D48"/>
<path d="M410.824 236.104C410.824 236.104 408.485 235.587 407.615 235.696C407.615 235.696 407.234 235.315 406.255 235.152L401.577 231.235C401.577 231.235 397.743 234.282 397.987 239.205C397.987 239.205 401.877 242.333 401.849 242.959C401.822 243.584 401.55 247.229 401.55 247.229L410.824 236.104Z" fill="#F77D48"/>
<path d="M396.247 212.494C396.247 212.494 396.355 211.325 396.845 210.4C397.335 209.475 397.443 206.891 396.954 206.973C396.464 207.054 396.546 208.006 396.029 207.816C395.512 207.653 395.023 204.579 394.288 204.742C393.554 204.933 392.929 205.858 392.847 208.034C392.793 210.21 393.5 212.467 393.5 212.467L396.247 212.494Z" fill="#FFB27D"/>
<path d="M445.392 216.112C445.392 216.112 445.827 214.861 445.773 213.691C445.691 212.494 446.779 209.829 447.269 210.155C447.758 210.482 447.214 211.379 447.813 211.461C448.438 211.515 450.342 208.605 451.022 209.149C451.675 209.666 451.892 210.917 450.941 213.174C449.989 215.432 448.194 217.418 448.194 217.418L445.392 216.112Z" fill="#FFB27D"/>
<path d="M435.9 253.131H386.701C383.872 253.131 381.587 250.846 381.587 248.017V205.422C381.587 202.593 383.872 200.309 386.701 200.309H435.9C438.729 200.309 441.013 202.593 441.013 205.422V248.017C441.013 250.819 438.702 253.131 435.9 253.131ZM386.701 201.995C384.824 201.995 383.274 203.545 383.274 205.422V248.017C383.274 249.894 384.824 251.445 386.701 251.445H435.9C437.777 251.445 439.327 249.894 439.327 248.017V205.422C439.327 203.545 437.777 201.995 435.9 201.995H386.701Z" fill="#2C3A64"/>
<path d="M311.881 252.07H228.385C226.318 252.07 224.414 251.064 223.299 249.35C222.211 247.691 222.048 245.624 222.864 243.828L226.563 235.56L241.358 202.512C242.31 200.363 244.486 198.976 246.852 198.976H334.944C336.114 198.976 337.174 199.547 337.8 200.526C338.398 201.478 338.48 202.648 338.017 203.681L317.347 248.588C316.396 250.71 314.22 252.07 311.881 252.07ZM246.879 201.206C245.383 201.206 244.024 202.076 243.398 203.409L224.877 244.699C224.387 245.814 224.469 247.065 225.149 248.099C225.856 249.187 227.052 249.812 228.358 249.812H311.854C313.349 249.812 314.709 248.969 315.335 247.636L336.005 202.729C336.168 202.403 336.141 202.022 335.923 201.723C335.706 201.369 335.352 201.179 334.917 201.179H246.879V201.206Z" fill="#163560"/>
<path d="M363.773 279.977C362.794 279.977 361.978 279.189 361.978 278.182V272.606C361.978 271.627 362.767 270.811 363.773 270.811C364.752 270.811 365.568 271.6 365.568 272.606V278.182C365.541 279.161 364.752 279.977 363.773 279.977Z" fill="#163560"/>
<path d="M376.039 193.454H374.353V335.112H376.039V193.454Z" fill="#0F214F"/>
<path d="M535.361 289.198H513.902C511.808 289.198 510.095 287.485 510.095 285.39V274.537C510.095 272.443 511.808 270.729 513.902 270.729H535.361C537.455 270.729 539.169 272.443 539.169 274.537V285.39C539.141 287.485 537.455 289.198 535.361 289.198ZM513.902 271.573C512.27 271.573 510.938 272.905 510.938 274.537V285.39C510.938 287.022 512.27 288.355 513.902 288.355H535.361C536.993 288.355 538.325 287.022 538.325 285.39V274.537C538.325 272.905 536.993 271.573 535.361 271.573H513.902Z" fill="#0F214F"/>
</svg>
