<svg width="80" height="81" viewBox="0 0 80 81" fill="none" xmlns="http://www.w3.org/2000/svg">
<g filter="url(#filter0_d)">
<rect x="4" y="3.03101" width="72" height="72.1439" rx="10" fill="white"/>
</g>
<path d="M64.3525 42.6658C62.9933 37.2907 61.6804 36.7759 57.3299 35.8234L56.6451 35.6535C53.8083 35.0202 48.7061 31.1949 47.0277 29.9335C45.2587 28.6266 43.1158 27.9244 40.9164 27.9307H32.3132C30.1148 27.9307 29.6103 28.2139 28.9152 28.9141L28.8329 29.0067L26.1917 32.6673C25.8416 33.0226 25.5481 33.3778 25.2855 33.697C24.642 34.4796 24.2146 34.9996 23.4269 35.1489L19.2618 35.6638C17.2847 36.0396 16.0594 37.198 16.0594 38.7426V46.2079C16.0594 46.4128 16.1408 46.6092 16.2856 46.754C16.4304 46.8988 16.6268 46.9802 16.8317 46.9802H20.7394C20.9748 48.0014 21.5494 48.9127 22.3695 49.5652C23.1896 50.2178 24.2066 50.573 25.2546 50.573C26.3026 50.573 27.3197 50.2178 28.1398 49.5652C28.9598 48.9127 29.5345 48.0014 29.7699 46.9802H47.5117C47.7471 48.0014 48.3217 48.9127 49.1418 49.5652C49.9619 50.2178 50.9789 50.573 52.0269 50.573C53.0749 50.573 54.092 50.2178 54.912 49.5652C55.7321 48.9127 56.3067 48.0014 56.5422 46.9802H61.0008C61.5275 46.9791 62.047 46.8579 62.5199 46.6258C62.9927 46.3937 63.4064 46.0569 63.7296 45.641C64.0527 45.225 64.2767 44.7409 64.3847 44.2253C64.4926 43.7098 64.4816 43.1764 64.3525 42.6658ZM26.48 34.6753C26.7426 34.3561 26.9948 34.0265 27.3295 33.7125L27.3861 33.5941L30.0273 29.9335C30.362 29.5988 30.5833 29.4495 32.2875 29.4495H40.8855C42.7531 29.4484 44.5713 30.0496 46.0701 31.164C48.3045 32.8424 50.1889 34.145 51.8055 35.1129H26.063L26.48 34.6753ZM25.2598 49.0396C24.6488 49.0396 24.0516 48.8584 23.5436 48.519C23.0356 48.1796 22.6396 47.6971 22.4058 47.1327C22.172 46.5682 22.1108 45.9471 22.23 45.3479C22.3492 44.7486 22.6434 44.1982 23.0755 43.7662C23.5075 43.3342 24.0579 43.04 24.6571 42.9208C25.2564 42.8016 25.8775 42.8627 26.4419 43.0965C27.0064 43.3304 27.4888 43.7263 27.8283 44.2343C28.1677 44.7423 28.3489 45.3395 28.3489 45.9505C28.3489 46.7698 28.0234 47.5555 27.4441 48.1348C26.8648 48.7142 26.0791 49.0396 25.2598 49.0396ZM52.0321 49.0396C51.4211 49.0396 50.8238 48.8584 50.3158 48.519C49.8078 48.1796 49.4119 47.6971 49.1781 47.1327C48.9443 46.5682 48.8831 45.9471 49.0023 45.3479C49.1215 44.7486 49.4157 44.1982 49.8477 43.7662C50.2798 43.3342 50.8302 43.04 51.4294 42.9208C52.0286 42.8016 52.6498 42.8627 53.2142 43.0965C53.7787 43.3304 54.2611 43.7263 54.6006 44.2343C54.94 44.7423 55.1212 45.3395 55.1212 45.9505C55.1212 46.7698 54.7957 47.5555 54.2164 48.1348C53.6371 48.7142 52.8513 49.0396 52.0321 49.0396ZM62.5093 44.6994C62.331 44.9295 62.1023 45.1155 61.8408 45.2432C61.5792 45.3708 61.2918 45.4367 61.0008 45.4357H56.6297C56.4987 44.3068 55.9574 43.2655 55.1088 42.5096C54.2601 41.7538 53.1633 41.3362 52.0269 41.3362C50.8905 41.3362 49.7937 41.7538 48.9451 42.5096C48.0964 43.2655 47.5551 44.3068 47.4241 45.4357H29.8574C29.7264 44.3068 29.1851 43.2655 28.3365 42.5096C27.4879 41.7538 26.3911 41.3362 25.2546 41.3362C24.1182 41.3362 23.0214 41.7538 22.1728 42.5096C21.3241 43.2655 20.7829 44.3068 20.6519 45.4357H17.6039V38.7426C17.6039 37.6563 19.0919 37.2907 19.5037 37.198L23.5608 36.6832H54.7968C55.284 36.8977 55.7887 37.0699 56.3053 37.198L57.0004 37.3525C60.9544 38.2174 61.6701 38.3822 62.8542 43.0622C62.9244 43.3434 62.9298 43.6369 62.87 43.9205C62.8103 44.2041 62.6869 44.4704 62.5093 44.6994Z" fill="#FBB667"/>
<defs>
<filter id="filter0_d" x="0" y="0.0310059" width="80" height="80.1439" filterUnits="userSpaceOnUse" color-interpolation-filters="sRGB">
<feFlood flood-opacity="0" result="BackgroundImageFix"/>
<feColorMatrix in="SourceAlpha" type="matrix" values="0 0 0 0 0 0 0 0 0 0 0 0 0 0 0 0 0 0 127 0" result="hardAlpha"/>
<feOffset dy="1"/>
<feGaussianBlur stdDeviation="2"/>
<feComposite in2="hardAlpha" operator="out"/>
<feColorMatrix type="matrix" values="0 0 0 0 0 0 0 0 0 0 0 0 0 0 0 0 0 0 0.25 0"/>
<feBlend mode="normal" in2="BackgroundImageFix" result="effect1_dropShadow"/>
<feBlend mode="normal" in="SourceGraphic" in2="effect1_dropShadow" result="shape"/>
</filter>
</defs>
</svg>
