<svg width="672" height="576" viewBox="0 0 672 576" fill="none" xmlns="http://www.w3.org/2000/svg">
<path d="M423.801 278.779C475.072 227.517 475.072 144.404 423.801 93.142C372.53 41.8798 289.403 41.8798 238.132 93.142C186.861 144.404 186.861 227.517 238.132 278.779C289.403 330.041 372.53 330.041 423.801 278.779Z" fill="#FBB667"/>
<path opacity="0.8" d="M175.634 197.228C171.723 190.136 164.189 185.343 155.527 185.343C152.235 185.343 149.098 186.049 146.27 187.287C144.966 179.157 137.918 172.949 129.411 172.949C126.87 172.949 124.484 173.502 122.318 174.496C119.844 168.156 113.701 163.649 106.476 163.649C97.3289 163.649 89.8608 170.873 89.5073 179.93C86.3698 181.256 83.6079 183.266 81.3542 185.762C79.6971 181.764 75.742 178.958 71.1463 178.958C66.3516 178.958 62.2861 182.007 60.7395 186.27C58.1985 184.923 55.3041 184.15 52.2108 184.15C43.9251 184.15 36.9652 189.65 34.7115 197.206H175.634V197.228Z" fill="#F1F2F2"/>
<path d="M542.324 431.572C509.248 416.594 472.283 412.043 435.98 412.706C361.653 414.076 288.761 436.498 214.433 436.101C187.344 435.946 159.88 432.787 133.366 438.464C99.6931 445.666 56.8728 476.793 39.6165 506.594H617.425C604.301 472.75 575.378 446.528 542.324 431.572Z" fill="#FFEDC5"/>
<path d="M286.861 242.404C286.861 242.404 287.811 222.213 261.275 212.449C261.275 212.449 263.153 211.985 268.345 213.067C268.345 213.067 221.768 185.917 192.934 235.203C192.934 235.203 202.06 190.689 260.236 190.004C260.236 190.004 249.984 172.331 217.482 179.29C217.482 179.29 219.36 176.572 224.729 175.379C224.729 175.379 188.14 176.793 188.162 231.248C185.82 175.954 135.355 183.641 135.355 183.641C139.928 184.614 142.049 188.192 142.049 188.192C108.907 184.702 100.312 208.759 100.312 208.759C160.631 187.596 184.096 234.496 184.096 234.496C154.666 198.796 121.015 216.381 121.015 216.381C125.787 215.122 128.174 217.176 128.174 217.176C95.1415 226.896 89.9492 260.939 89.9492 260.939C134.581 218.391 183.5 241.587 183.5 241.587C134.184 233.347 114.519 272.559 114.519 272.559C118.606 268.317 123.357 267.588 123.357 267.588C96.0916 305.166 133.057 335.85 133.057 335.85C117.303 267.655 183.5 247.397 183.5 247.397C183.5 247.397 165.912 292.971 196.624 376.167C213.814 422.735 220.2 450.747 220.2 471.248L253.055 465.062C253.055 465.062 215.891 389.886 203.297 362.846C180.561 314.046 183.986 262.971 189.311 247.419C189.311 247.419 255.817 250.976 254.359 326.815C254.359 326.815 279.326 301.962 264.456 273.155C264.456 273.155 269.405 273.443 272.366 279.584C272.366 279.584 267.351 229.967 191.984 242.382C191.962 242.404 241.787 211.366 286.861 242.404Z" fill="#0F214F"/>
<path d="M405.224 271.366C405.224 271.366 404.473 255.328 425.529 247.574C425.529 247.574 424.049 247.22 419.917 248.082C419.917 248.082 456.904 226.543 479.773 265.644C479.773 265.644 472.526 230.298 426.347 229.768C426.347 229.768 434.478 215.74 460.285 221.263C460.285 221.263 458.805 219.098 454.54 218.148C454.54 218.148 483.573 219.275 483.573 262.507C485.429 218.612 525.51 224.709 525.51 224.709C521.864 225.482 520.207 228.332 520.207 228.332C546.5 225.571 553.349 244.658 553.349 244.658C505.469 227.868 486.843 265.092 486.843 265.092C510.198 236.749 536.911 250.711 536.911 250.711C533.11 249.694 531.232 251.351 531.232 251.351C557.459 259.083 561.569 286.101 561.569 286.101C526.128 252.323 487.307 270.747 487.307 270.747C526.46 264.208 542.059 295.335 542.059 295.335C538.811 291.977 535.055 291.381 535.055 291.381C556.708 321.226 527.344 345.571 527.344 345.571C539.849 291.447 487.307 275.342 487.307 275.342C487.307 275.342 510.065 324.495 483.396 386.373C467.797 422.559 469.454 442.043 461.898 468.818L432.047 463.737C432.047 463.737 454.231 421.609 474.249 381.867C501.271 328.251 486.91 287.714 482.689 275.365C482.689 275.365 429.882 278.192 431.053 338.391C431.053 338.391 411.234 318.663 423.033 295.799C423.033 295.799 419.1 296.042 416.758 300.902C416.758 300.902 420.735 261.513 480.568 271.366C480.568 271.366 441.018 246.734 405.224 271.366Z" fill="#0F214F"/>
<path d="M49.3163 118.03C49.3163 118.03 39.727 95.5636 14.0967 117.942C14.0967 117.942 23.1557 96.9995 43.7483 105.041C45.7811 84.3412 70.4613 84.3412 70.4613 84.3412C62.507 87.5224 56.4088 92.1173 53.2713 96.9111C46.5765 107.051 49.3163 118.03 49.3163 118.03Z" fill="#0F214F"/>
<path d="M209.02 30.0629C209.02 30.0629 209.042 -0.00327268 169.138 5.65209C169.138 5.65209 193.376 -10.6954 210.014 12.2132C226.519 -8.72932 253.121 8.30304 253.121 8.30304C242.339 6.24856 232.75 7.37521 225.878 10.0041C209.55 16.2338 209.02 30.0629 209.02 30.0629Z" fill="#0F214F"/>
<path d="M335.691 122.272C335.691 122.272 336.044 106.609 315.165 112.883C315.165 112.883 325.991 103.053 335.89 113.215C342.562 101.661 356.968 108.2 356.968 108.2C351.467 107.957 346.716 109.017 343.601 110.983C336.994 115.136 335.691 122.272 335.691 122.272Z" fill="#0F214F"/>
<path d="M445.592 31.3221C445.592 31.3221 460.793 12.655 429.529 0.548934C429.529 0.548934 451.955 -1.15209 454.364 20.4974C473.365 12.7875 484.678 34.3044 484.678 34.3044C478.248 28.8258 471.465 25.6225 465.831 25.0703C453.922 23.8994 445.592 31.3221 445.592 31.3221Z" fill="#0F214F"/>
<path d="M611.393 180.438C611.393 180.438 610.664 166.543 594.8 169.128C594.8 169.128 604.897 163.649 610.355 168.642C611.68 169.857 612.608 171.359 613.095 173.148C618.552 163.207 632.141 171.315 632.141 171.315C617.293 168.045 611.393 180.438 611.393 180.438Z" fill="#0F214F"/>
<path d="M634.549 47.0511C634.549 47.0511 649.596 26.7493 624.407 12.0585C624.407 12.0585 644.89 16.0571 646.746 29.356C647.188 32.6034 646.746 35.7625 645.398 38.8332C664.532 31.2117 674.166 58.2735 674.166 58.2735C657.108 36.5136 634.549 47.0511 634.549 47.0511Z" fill="#0F214F"/>
<path opacity="0.8" d="M491.064 149.312C490.489 144.717 486.578 141.16 481.828 141.16C481.828 133.98 475.995 128.148 468.814 128.148C464.947 128.148 461.478 129.827 459.092 132.5C458.031 132.235 456.949 132.08 455.8 132.08C455.667 132.08 455.535 132.08 455.402 132.08C453.811 126.624 448.751 122.625 442.786 122.625C435.516 122.625 429.639 128.502 429.639 135.77C429.639 135.88 429.639 136.013 429.639 136.123C428.822 135.902 427.96 135.77 427.076 135.77C425.927 135.77 424.845 135.969 423.828 136.344C422.193 133.627 419.232 131.815 415.83 131.815C412.626 131.815 409.798 133.428 408.119 135.902C407.588 135.814 407.058 135.77 406.506 135.77C401.357 135.77 397.181 139.945 397.181 145.092C397.181 145.247 397.181 145.379 397.181 145.534C395.966 145.158 394.685 144.96 393.337 144.96C389.448 144.96 385.979 146.639 383.571 149.312H491.064Z" fill="#F1F2F2"/>
<path opacity="0.8" d="M48.0347 46.6093C46.709 44.2014 44.146 42.5666 41.1853 42.5666C40.0584 42.5666 38.9978 42.8096 38.0257 43.2293C37.5838 40.4679 35.1754 38.3472 32.2809 38.3472C31.4192 38.3472 30.6017 38.546 29.8505 38.8773C29.0109 36.7124 26.9118 35.1881 24.4593 35.1881C21.3439 35.1881 18.8029 37.6623 18.6704 40.733C17.6098 41.1748 16.6597 41.8597 15.8864 42.7212C15.3119 41.3516 13.9641 40.4016 12.4174 40.4016C10.7824 40.4016 9.39042 41.4399 8.88223 42.898C8.02052 42.434 7.02624 42.1689 5.96568 42.1689C3.1375 42.1689 0.773328 44.0467 0 46.6314H48.0347V46.6093Z" fill="#F1F2F2"/>
<path opacity="0.8" d="M198.524 114.319C199.099 111.756 201.375 109.857 204.114 109.857C205.727 109.857 207.208 110.541 208.246 111.624C210.014 110.1 212.201 109.106 214.632 108.818C214.809 104.091 218.697 100.313 223.492 100.313C224.354 100.313 225.193 100.446 225.967 100.667C227.359 97.618 230.43 95.4973 233.987 95.4973C238.848 95.4973 242.803 99.4516 242.803 104.312C242.803 104.997 242.715 105.637 242.582 106.278C244.151 106.521 245.609 107.051 246.891 107.846C248.415 106.764 250.293 106.145 252.304 106.145C255.817 106.145 258.866 108.067 260.501 110.895C261.429 110.254 262.556 109.879 263.749 109.879C266.489 109.879 268.765 111.801 269.339 114.341H198.524V114.319Z" fill="#F1F2F2"/>
<path d="M321.97 575.673C435.395 575.673 527.344 574.259 527.344 572.514C527.344 570.77 435.395 569.355 321.97 569.355C208.545 569.355 116.596 570.77 116.596 572.514C116.596 574.259 208.545 575.673 321.97 575.673Z" fill="#4B4B4B"/>
<path d="M237.5 453.928C237.5 453.928 237.125 456.292 237.5 458.236C237.81 459.893 239.599 462.875 239.599 462.875C239.732 463.163 240.152 463.074 240.152 462.765C240.152 460.931 239.864 457.352 238.053 453.818C237.92 453.553 237.5 453.641 237.5 453.928Z" fill="#808285"/>
<path d="M237.522 465.04C237.39 464.775 237.036 464.731 236.837 464.93L236.815 458.81L237.478 458.855L237.522 465.04Z" fill="#808285"/>
<path d="M238.119 466.542C237.014 467.073 236.263 466.542 236.263 466.542L236.749 465.084C236.771 465.018 236.793 464.974 236.837 464.93C237.036 464.731 237.39 464.775 237.522 465.04C237.522 465.04 237.522 465.062 237.544 465.062L238.119 466.542Z" fill="#6D6E71"/>
<path d="M237.589 457.595L236.44 458.214C236.152 458.369 236.241 458.788 236.594 458.81L237.898 458.877C237.876 458.899 238.185 458.391 237.589 457.595Z" fill="#6D6E71"/>
<path d="M498.642 547.905H486.865L498.841 543.796L498.642 547.905Z" fill="#0F214F"/>
<path d="M153.45 538.361L147.573 524.775C146.954 523.317 144.767 523.405 144.281 524.908C142.911 529.039 141.077 535.6 140.591 542.006C140.171 547.463 144.634 552.146 150.357 552.146C150.799 552.146 151.13 551.815 151.153 551.395L151.197 546.645L153.45 538.361Z" fill="#0F214F"/>
<path d="M172.85 542.072L164.034 551.483C163.106 552.477 161.736 553.008 160.344 552.941L155.306 552.676C151.506 552.477 148.545 549.473 148.545 545.85V542.072L150.865 539.289H159.173L172.828 536.616V542.072H172.85Z" fill="#0F214F"/>
<path d="M181.136 532.905C181.136 550.003 195.608 563.832 213.461 563.832C224.95 563.832 235.026 558.089 240.77 549.451C239.4 548.877 238.296 547.794 237.743 546.402C235.755 541.454 232.065 532.706 229.546 529.569C225.944 525.106 215.449 515.099 199.298 515.364C194.768 515.43 190.084 515.762 185.533 517.308C182.726 521.859 181.136 527.205 181.136 532.905Z" fill="#0F214F"/>
<path d="M168.873 542.316C168.873 559.414 183.345 573.265 201.198 573.265C219.051 573.265 233.523 559.414 233.523 542.316C233.523 525.217 219.051 511.388 201.198 511.388C191.056 511.388 181.997 515.872 176.076 522.875C172.275 527.36 169.779 532.883 169.072 538.913C168.939 540.018 168.873 541.167 168.873 542.316Z" fill="#0F214F"/>
<path d="M201.198 569.311C216.769 569.311 229.391 557.225 229.391 542.316C229.391 527.406 216.769 515.32 201.198 515.32C185.627 515.32 173.005 527.406 173.005 542.316C173.005 557.225 185.627 569.311 201.198 569.311Z" fill="#E6E7E8"/>
<path d="M201.198 563.545C213.45 563.545 223.381 554.04 223.381 542.316C223.381 530.591 213.45 521.086 201.198 521.086C188.946 521.086 179.014 530.591 179.014 542.316C179.014 554.04 188.946 563.545 201.198 563.545Z" fill="#797471"/>
<path d="M201.198 561.027C211.997 561.027 220.752 552.65 220.752 542.316C220.752 531.982 211.997 523.604 201.198 523.604C190.399 523.604 181.644 531.982 181.644 542.316C181.644 552.65 190.399 561.027 201.198 561.027Z" fill="#605C57"/>
<path d="M186.571 542.316C186.571 550.047 193.133 556.321 201.198 556.321C209.285 556.321 215.825 550.047 215.825 542.316C215.825 541.388 215.737 540.482 215.56 539.62C214.234 533.17 208.313 528.31 201.198 528.31C194.083 528.31 188.162 533.17 186.836 539.62C186.659 540.482 186.571 541.388 186.571 542.316Z" fill="#757475"/>
<path d="M186.836 539.62C190.791 542.625 195.763 544.414 201.198 544.414C206.633 544.414 211.605 542.625 215.56 539.62C214.234 533.17 208.313 528.31 201.198 528.31C194.083 528.31 188.162 533.17 186.836 539.62Z" fill="white"/>
<path d="M179.677 542.316C179.677 530.961 189.333 521.704 201.198 521.704C213.063 521.704 222.718 530.938 222.718 542.316C222.718 553.67 213.063 562.927 201.198 562.927C189.333 562.927 179.677 553.67 179.677 542.316ZM180.163 542.316C180.163 553.427 189.598 562.441 201.198 562.441C212.798 562.441 222.232 553.405 222.232 542.316C222.232 531.204 212.798 522.19 201.198 522.19C189.598 522.19 180.163 531.226 180.163 542.316Z" fill="#605C57"/>
<path d="M178.771 542.316C178.771 530.475 188.825 520.843 201.198 520.843C213.571 520.843 223.624 530.475 223.624 542.316C223.624 554.157 213.571 563.788 201.198 563.788C188.847 563.788 178.771 554.157 178.771 542.316ZM179.28 542.316C179.28 553.891 189.112 563.302 201.22 563.302C213.306 563.302 223.16 553.891 223.16 542.316C223.16 530.74 213.328 521.329 201.22 521.329C189.112 521.329 179.28 530.74 179.28 542.316Z" fill="#605C57"/>
<path d="M199.143 526.277H203.805C203.916 526.277 204.004 526.189 204.004 526.078V524.908C204.004 524.797 203.916 524.709 203.805 524.709H199.143C199.033 524.709 198.944 524.797 198.944 524.908V526.078C198.944 526.189 199.033 526.277 199.143 526.277Z" fill="#0F214F"/>
<path d="M187.455 532.949L190.482 529.746C190.592 529.635 190.57 529.458 190.46 529.37L189.642 528.663C189.532 528.575 189.355 528.575 189.245 528.685L186.217 531.888C186.107 531.999 186.129 532.176 186.24 532.264L187.057 532.971C187.168 533.081 187.344 533.059 187.455 532.949Z" fill="#0F214F"/>
<path d="M184.45 544.282V539.841C184.45 539.731 184.361 539.642 184.251 539.642H182.992C182.881 539.642 182.793 539.731 182.793 539.841V544.282C182.793 544.392 182.881 544.481 182.992 544.481H184.251C184.361 544.481 184.45 544.392 184.45 544.282Z" fill="#0F214F"/>
<path d="M190.769 554.996L187.587 551.947C187.477 551.837 187.3 551.837 187.19 551.947L186.416 552.698C186.306 552.809 186.306 552.964 186.416 553.074L189.598 556.123C189.708 556.233 189.885 556.233 189.996 556.123L190.769 555.371C190.88 555.283 190.88 555.106 190.769 554.996Z" fill="#0F214F"/>
<path d="M203.275 558.354H198.613C198.502 558.354 198.414 558.442 198.414 558.553V559.723C198.414 559.834 198.502 559.922 198.613 559.922H203.275C203.385 559.922 203.474 559.834 203.474 559.723V558.553C203.474 558.442 203.385 558.354 203.275 558.354Z" fill="#0F214F"/>
<path d="M214.455 552.323L211.273 555.371C211.163 555.482 211.163 555.637 211.273 555.747L212.047 556.498C212.157 556.609 212.334 556.609 212.444 556.498L215.626 553.45C215.737 553.339 215.737 553.184 215.626 553.074L214.853 552.323C214.742 552.212 214.565 552.212 214.455 552.323Z" fill="#0F214F"/>
<path d="M217.968 540.349V544.79C217.968 544.9 218.057 544.989 218.167 544.989H219.426C219.537 544.989 219.625 544.9 219.625 544.79V540.349C219.625 540.239 219.537 540.151 219.426 540.151H218.167C218.057 540.151 217.968 540.239 217.968 540.349Z" fill="#0F214F"/>
<path d="M211.649 529.635L214.831 532.684C214.941 532.794 215.118 532.794 215.228 532.684L216.002 531.933C216.112 531.822 216.112 531.668 216.002 531.557L212.82 528.509C212.71 528.398 212.533 528.398 212.422 528.509L211.649 529.26C211.538 529.348 211.538 529.525 211.649 529.635Z" fill="#0F214F"/>
<path d="M201.198 546.955C203.87 546.955 206.037 544.878 206.037 542.316C206.037 539.753 203.87 537.676 201.198 537.676C198.525 537.676 196.359 539.753 196.359 542.316C196.359 544.878 198.525 546.955 201.198 546.955Z" fill="#E6E7E8"/>
<path d="M201.198 546.579C203.651 546.579 205.639 544.67 205.639 542.316C205.639 539.961 203.651 538.052 201.198 538.052C198.745 538.052 196.757 539.961 196.757 542.316C196.757 544.67 198.745 546.579 201.198 546.579Z" fill="#6D6E71"/>
<path d="M166.332 537.566L169.072 538.891C169.779 532.838 172.275 527.338 176.076 522.853C172.474 526.145 169.16 530.828 166.332 537.566Z" fill="#0F214F"/>
<path d="M398.286 550.069C404.031 558.619 414.062 564.274 425.485 564.274C443.338 564.274 457.81 550.423 457.81 533.324C457.81 525.968 455.115 519.208 450.629 513.884C446.674 512.669 442.101 511.984 436.842 512.006C429.772 512.028 410.394 516.579 401.932 547.529C401.777 548.103 401.468 548.611 401.048 549.031C400.407 549.672 399.501 550.047 398.529 550.047H398.286V550.069Z" fill="#0F214F"/>
<path d="M401.07 549.053L407.522 551.307H468.814C472.327 551.726 477.033 551.307 477.033 551.307C477.033 551.307 476.79 541.476 471.686 531.668C466.56 521.815 456.507 511.962 436.864 512.028C429.794 512.05 410.416 516.601 401.954 547.551C401.777 548.126 401.49 548.634 401.07 549.053Z" fill="#0F214F"/>
<path d="M405.732 542.757C405.732 559.856 420.205 573.707 438.057 573.707C455.91 573.707 470.383 559.856 470.383 542.757C470.383 525.659 455.91 511.83 438.057 511.83C427.916 511.83 418.857 516.314 412.935 523.317C409.135 527.802 406.638 533.324 405.931 539.355C405.799 540.482 405.732 541.609 405.732 542.757Z" fill="#0F214F"/>
<path d="M438.057 569.753C453.628 569.753 466.251 557.666 466.251 542.757C466.251 527.848 453.628 515.762 438.057 515.762C422.487 515.762 409.864 527.848 409.864 542.757C409.864 557.666 422.487 569.753 438.057 569.753Z" fill="#E6E7E8"/>
<path d="M438.057 563.987C450.309 563.987 460.241 554.482 460.241 542.757C460.241 531.033 450.309 521.528 438.057 521.528C425.806 521.528 415.874 531.033 415.874 542.757C415.874 554.482 425.806 563.987 438.057 563.987Z" fill="#797471"/>
<path d="M438.057 561.469C448.857 561.469 457.612 553.091 457.612 542.757C457.612 532.423 448.857 524.046 438.057 524.046C427.258 524.046 418.503 532.423 418.503 542.757C418.503 553.091 427.258 561.469 438.057 561.469Z" fill="#605C57"/>
<path d="M423.408 542.757C423.408 550.489 429.971 556.763 438.035 556.763C446.122 556.763 452.662 550.489 452.662 542.757C452.662 541.83 452.574 540.924 452.397 540.062C451.071 533.612 445.15 528.751 438.035 528.751C430.921 528.751 424.999 533.612 423.673 540.062C423.519 540.946 423.408 541.83 423.408 542.757Z" fill="#757475"/>
<path d="M423.696 540.062C427.651 543.067 432.622 544.856 438.057 544.856C443.493 544.856 448.464 543.067 452.419 540.062C451.094 533.612 445.172 528.751 438.057 528.751C430.943 528.751 424.999 533.612 423.696 540.062Z" fill="white"/>
<path d="M416.537 542.757C416.537 531.402 426.192 522.146 438.057 522.146C449.922 522.146 459.578 531.38 459.578 542.757C459.578 554.112 449.922 563.369 438.057 563.369C426.192 563.369 416.537 554.134 416.537 542.757ZM417.023 542.757C417.023 553.869 426.457 562.883 438.057 562.883C449.657 562.883 459.092 553.847 459.092 542.757C459.092 531.668 449.657 522.632 438.057 522.632C426.457 522.632 417.023 531.668 417.023 542.757Z" fill="#605C57"/>
<path d="M415.631 542.757C415.631 530.916 425.684 521.285 438.057 521.285C450.43 521.285 460.484 530.916 460.484 542.757C460.484 554.598 450.43 564.23 438.057 564.23C425.684 564.23 415.631 554.598 415.631 542.757ZM416.117 542.757C416.117 554.333 425.949 563.744 438.057 563.744C450.143 563.744 459.998 554.333 459.998 542.757C459.998 531.182 450.165 521.771 438.057 521.771C425.949 521.771 416.117 531.182 416.117 542.757Z" fill="#605C57"/>
<path d="M435.98 526.719H440.642C440.753 526.719 440.841 526.631 440.841 526.52V525.349C440.841 525.239 440.753 525.151 440.642 525.151H435.98C435.87 525.151 435.781 525.239 435.781 525.349V526.52C435.781 526.631 435.87 526.719 435.98 526.719Z" fill="#0F214F"/>
<path d="M424.292 533.413L427.319 530.209C427.43 530.099 427.408 529.922 427.297 529.834L426.48 529.127C426.369 529.039 426.192 529.039 426.082 529.149L423.055 532.352C422.944 532.463 422.966 532.639 423.077 532.728L423.894 533.435C424.027 533.523 424.204 533.523 424.292 533.413Z" fill="#0F214F"/>
<path d="M421.287 544.723V540.283C421.287 540.173 421.199 540.084 421.088 540.084H419.829C419.719 540.084 419.63 540.173 419.63 540.283V544.723C419.63 544.834 419.719 544.922 419.829 544.922H421.088C421.199 544.944 421.287 544.834 421.287 544.723Z" fill="#0F214F"/>
<path d="M427.606 555.46L424.425 552.411C424.314 552.301 424.138 552.301 424.027 552.411L423.254 553.162C423.143 553.273 423.143 553.428 423.254 553.538L426.435 556.587C426.546 556.697 426.723 556.697 426.833 556.587L427.606 555.835C427.717 555.725 427.717 555.548 427.606 555.46Z" fill="#0F214F"/>
<path d="M440.112 558.796H435.45C435.34 558.796 435.251 558.884 435.251 558.994V560.165C435.251 560.276 435.34 560.364 435.45 560.364H440.112C440.223 560.364 440.311 560.276 440.311 560.165V558.994C440.311 558.906 440.223 558.796 440.112 558.796Z" fill="#0F214F"/>
<path d="M451.314 552.765L448.133 555.813C448.022 555.924 448.022 556.078 448.133 556.189L448.906 556.94C449.017 557.05 449.193 557.05 449.304 556.94L452.485 553.891C452.596 553.781 452.596 553.626 452.485 553.516L451.712 552.765C451.602 552.654 451.403 552.654 451.314 552.765Z" fill="#0F214F"/>
<path d="M454.805 540.791V545.232C454.805 545.342 454.894 545.43 455.004 545.43H456.264C456.374 545.43 456.463 545.342 456.463 545.232V540.791C456.463 540.681 456.374 540.592 456.264 540.592H455.004C454.894 540.592 454.805 540.681 454.805 540.791Z" fill="#0F214F"/>
<path d="M448.486 530.077L451.668 533.126C451.778 533.236 451.955 533.236 452.066 533.126L452.839 532.374C452.95 532.264 452.95 532.109 452.839 531.999L449.657 528.95C449.547 528.84 449.37 528.84 449.26 528.95L448.486 529.701C448.376 529.812 448.376 529.967 448.486 530.077Z" fill="#0F214F"/>
<path d="M438.057 547.397C440.73 547.397 442.896 545.32 442.896 542.757C442.896 540.195 440.73 538.118 438.057 538.118C435.385 538.118 433.219 540.195 433.219 542.757C433.219 545.32 435.385 547.397 438.057 547.397Z" fill="#E6E7E8"/>
<path d="M438.057 547.021C440.51 547.021 442.498 545.112 442.498 542.757C442.498 540.403 440.51 538.494 438.057 538.494C435.604 538.494 433.616 540.403 433.616 542.757C433.616 545.112 435.604 547.021 438.057 547.021Z" fill="#6D6E71"/>
<path d="M162.642 537.941H147.816C146.822 537.941 145.938 538.516 145.54 539.377L143.242 544.569C142.558 546.093 143.773 547.794 145.518 547.75L159.858 547.308C162.068 547.242 163.835 545.497 163.835 543.376V539.09C163.835 538.472 163.305 537.941 162.642 537.941Z" fill="#0F214F"/>
<path d="M506.066 520.202L498.554 530.961L497.493 544.503H498.863C504.387 544.503 508.85 540.217 508.85 534.937V521.019C508.85 519.561 506.906 518.987 506.066 520.202Z" fill="#0F214F"/>
<path d="M144.657 496.123C144.59 504.031 153.76 526.587 159.129 539.09C160.344 541.94 164.608 541.918 165.757 539.024C165.956 538.516 166.155 538.03 166.354 537.566C170.243 528.354 174.993 522.964 180.163 519.805C181.931 518.722 183.743 517.905 185.577 517.286C190.106 515.74 194.79 515.431 199.342 515.342C215.471 515.099 225.989 525.084 229.59 529.547C232.109 532.684 235.799 541.432 237.787 546.38C238.34 547.772 239.444 548.855 240.814 549.429C241.543 549.738 242.339 549.915 243.156 549.915L398.352 550.048H398.595C399.568 550.048 400.473 549.672 401.114 549.031C401.534 548.634 401.843 548.104 401.998 547.529C410.46 516.579 429.838 512.028 436.908 512.006C442.167 511.984 446.718 512.691 450.696 513.884C461.588 517.198 467.974 524.422 471.752 531.646C476.878 541.476 477.099 551.285 477.099 551.285L497.603 544.171C499.194 543.619 500.343 542.271 500.586 540.681C503.702 520.18 498.841 498.84 496.013 488.899C494.974 485.21 492.853 481.874 489.936 479.267C484.236 474.186 474.315 465.858 469.631 464.709C469.587 464.687 469.543 464.687 469.476 464.687C469.079 464.621 468.681 464.687 468.327 464.864L466.383 465.791C466.383 465.791 451.69 440.894 446.21 429.142C445.525 427.684 445.79 426.049 446.763 424.856C447.006 424.569 447.315 424.282 447.646 424.061L447.978 423.84C448.42 423.464 448.574 422.89 448.464 422.404C448.353 421.962 448.066 421.587 447.58 421.388C441.659 418.869 425.132 412.021 415.366 409.922C398.485 406.299 337.547 394.9 273.206 411.646L269.317 412.618C268.345 412.861 268.102 413.987 268.72 414.584C268.809 414.694 268.941 414.76 269.074 414.849L270.355 415.467L276.94 418.649C277.028 418.693 277.094 418.715 277.161 418.759C279.768 420.217 280.652 423.42 279.149 425.939L257.253 462.699C254.58 467.183 248.592 468.707 243.93 466.101C241.654 464.819 239.533 463.383 238.428 461.947C238.207 461.66 237.876 461.484 237.522 461.439C237.257 461.395 236.992 461.439 236.749 461.55C234.517 462.544 229.413 465.062 226.187 468.464C226.187 468.464 186.46 469.149 156.013 480.769C153.296 481.808 148.545 483.575 146.137 488.811C145.253 490.71 144.679 493.118 144.657 496.123ZM366.933 428.104C366.911 425.188 369.452 422.846 372.501 422.978L396.96 424.017C409.068 424.525 419.961 431.152 425.596 441.425L434.345 457.397C438.344 464.378 434.544 470.917 428.534 470.917H373.385C369.916 470.917 367.11 468.243 367.088 464.908L366.933 428.104ZM263.97 467.139L289.158 427.927C289.932 426.712 291.302 425.983 292.782 425.961L355.422 425.563C357.3 425.541 358.824 426.999 358.824 428.811V462.787C358.824 467.956 354.449 471.8 349.036 471.8L268.897 472.109H268.875H266.864C264.213 472.132 262.578 469.326 263.97 467.139Z" fill="#D1D3D4"/>
<path d="M350.008 486.513C350.008 487.397 349.567 488.236 348.793 488.921C347.445 490.158 345.081 490.953 342.408 490.953C338.21 490.953 334.807 488.965 334.807 486.491C334.807 484.039 338.21 482.028 342.408 482.028C345.037 482.028 347.335 482.802 348.705 483.995C349.544 484.724 350.008 485.585 350.008 486.513Z" fill="#0F214F"/>
<path opacity="0.2" d="M356.482 486.513C356.482 487.242 356.173 487.905 355.665 488.391C355.157 488.877 354.472 489.164 353.72 489.164L348.815 488.921C349.589 488.236 350.031 487.397 350.031 486.513C350.031 485.585 349.545 484.746 348.727 484.017L353.72 483.862C355.223 483.862 356.482 485.055 356.482 486.513Z" fill="#58595B"/>
<path d="M338.077 487.794L353.455 488.347C354.516 488.347 355.378 487.507 355.378 486.491C355.378 485.475 354.516 484.635 353.455 484.635L338.077 485.187C337.017 485.187 336.155 485.475 336.155 486.491C336.155 487.529 337.017 487.794 338.077 487.794Z" fill="#F1F2F2"/>
<path opacity="0.55" d="M446.144 429.142C451.646 440.917 466.317 465.791 466.317 465.791L467.046 465.438L468.283 464.863C468.283 464.863 468.239 464.731 468.173 464.51C467.135 461.461 459.313 439.216 447.138 425.32C447.028 425.188 446.94 425.077 446.829 424.967C446.807 424.923 446.763 424.878 446.719 424.834H446.697C445.702 426.049 445.459 427.706 446.144 429.142Z" fill="#FDFFFB"/>
<path opacity="0.55" d="M238.406 461.947C239.025 462.743 239.931 463.538 241.013 464.289C241.897 464.93 242.891 465.526 243.908 466.101C244.681 466.542 245.521 466.852 246.338 467.073C250.47 468.111 254.999 466.432 257.231 462.699L279.127 425.939C279.923 424.613 280.033 423.089 279.591 421.741C279.194 420.526 278.354 419.444 277.117 418.759C277.05 418.715 276.962 418.671 276.896 418.649L270.311 415.467C270.311 415.467 270.289 415.489 270.267 415.534C270.223 415.578 270.179 415.666 270.113 415.755C267.704 419.002 245.477 449.179 238.627 461.638C238.539 461.727 238.472 461.837 238.406 461.947Z" fill="#FDFFFB"/>
<path d="M366.977 427.441L391.415 428.479C403.523 428.987 414.416 435.615 420.05 445.887L428.8 461.859C430.7 465.173 430.832 468.376 429.838 470.828C435.075 469.967 438.035 463.892 434.345 457.419L425.596 441.447C419.961 431.174 409.069 424.547 396.96 424.039L372.501 423.001C369.695 422.868 367.309 424.856 366.977 427.441Z" fill="#58595B"/>
<path d="M366.734 464.93L366.58 428.104C366.58 427.839 366.602 427.596 366.624 427.375L366.668 427.065L391.437 428.126C403.611 428.634 414.703 435.394 420.381 445.71L429.131 461.682C430.965 464.864 431.318 468.155 430.191 470.939L430.125 471.115L429.926 471.16C429.484 471.248 429.043 471.27 428.556 471.27H373.407C369.739 471.292 366.734 468.442 366.734 464.93ZM428.49 462.014L419.74 446.042C414.195 435.924 403.324 429.319 391.415 428.811L367.309 427.794C367.309 427.905 367.309 427.993 367.309 428.104L367.463 464.93C367.485 468.045 370.137 470.585 373.407 470.585H428.556C428.932 470.585 429.263 470.563 429.595 470.519C430.567 467.956 430.169 464.952 428.49 462.014Z" fill="#0F214F"/>
<path d="M366.734 464.93L366.58 428.104C366.58 427.839 366.602 427.596 366.624 427.375L366.668 427.065L391.437 428.126C403.611 428.634 414.703 435.394 420.381 445.71L429.131 461.682C430.965 464.864 431.318 468.155 430.191 470.939L430.125 471.115L429.926 471.16C429.484 471.248 429.043 471.27 428.556 471.27H373.407C369.739 471.292 366.734 468.442 366.734 464.93ZM428.49 462.014L419.74 446.042C414.195 435.924 403.324 429.319 391.415 428.811L367.309 427.794C367.309 427.905 367.309 427.993 367.309 428.104L367.463 464.93C367.485 468.045 370.137 470.585 373.407 470.585H428.556C428.932 470.585 429.263 470.563 429.595 470.519C430.567 467.956 430.169 464.952 428.49 462.014Z" fill="#0F214F"/>
<path d="M265.031 471.601C264.986 471.005 265.141 470.386 265.517 469.79L289.777 432.014C290.528 430.843 291.854 430.136 293.268 430.136L353.61 429.76C355.422 429.738 356.902 431.152 356.902 432.875V465.592C356.902 466.83 356.637 468 356.173 469.061C357.83 467.47 358.868 465.283 358.868 462.787V428.81C358.868 426.999 357.322 425.541 355.466 425.563L292.826 425.961C291.346 425.983 289.976 426.712 289.203 427.927L264.014 467.139C262.932 468.751 263.55 470.695 265.031 471.601Z" fill="#58595B"/>
<path d="M264.832 471.889L264.677 471.8V471.623C264.633 470.917 264.81 470.232 265.207 469.613L289.468 431.837C290.285 430.556 291.699 429.805 293.268 429.783L353.61 429.407C354.604 429.407 355.51 429.76 356.195 430.423C356.88 431.086 357.256 431.947 357.256 432.875V465.593C357.256 466.852 356.99 468.067 356.482 469.193L356.416 469.304C354.494 471.137 351.886 472.132 349.08 472.132L266.909 472.463C266.135 472.463 265.428 472.264 264.832 471.889ZM356.526 465.593V432.875C356.526 432.124 356.217 431.439 355.665 430.909C355.112 430.379 354.361 430.114 353.588 430.092L293.246 430.467C291.942 430.467 290.749 431.108 290.042 432.191L265.782 469.967C265.495 470.408 265.362 470.894 265.34 471.38C265.782 471.623 266.312 471.756 266.842 471.756L349.014 471.425C351.621 471.425 354.03 470.497 355.797 468.84C356.283 467.846 356.526 466.741 356.526 465.593Z" fill="#0F214F"/>
<path d="M264.832 471.888L264.677 471.8V471.623C264.633 470.916 264.81 470.232 265.207 469.635L289.468 431.859C290.285 430.578 291.699 429.827 293.268 429.827L353.61 429.451C354.582 429.407 355.488 429.805 356.173 430.445C356.858 431.108 357.234 431.97 357.234 432.897V465.592C357.234 466.852 356.968 468.067 356.46 469.193L356.394 469.304C354.494 471.137 351.887 472.132 349.058 472.132L266.887 472.463C266.158 472.463 265.428 472.264 264.832 471.888ZM356.527 465.592V432.875C356.527 432.124 356.217 431.417 355.665 430.887C355.112 430.357 354.383 430.07 353.588 430.07L293.246 430.445C291.92 430.445 290.727 431.108 290.042 432.168L265.782 469.944C265.495 470.386 265.34 470.872 265.34 471.38C265.804 471.623 266.312 471.756 266.865 471.756L349.036 471.425C351.644 471.425 354.052 470.497 355.842 468.818C356.306 467.846 356.527 466.741 356.527 465.592Z" fill="#0F214F"/>
<path opacity="0.55" d="M366.933 428.104L367.088 464.93C367.11 468.243 369.916 470.938 373.385 470.938H428.534C434.544 470.938 438.345 464.399 434.345 457.419L425.574 441.447C419.939 431.174 409.047 424.547 396.938 424.039L372.479 423.001C369.452 422.868 366.911 425.188 366.933 428.104Z" fill="#FDFFFB"/>
<path opacity="0.55" d="M355.422 425.585L292.782 425.983C291.302 425.983 289.932 426.734 289.158 427.949L263.97 467.161C262.578 469.348 264.213 472.154 266.887 472.132L349.058 471.822C354.449 471.822 358.824 467.978 358.824 462.809V428.833C358.824 427.021 357.3 425.563 355.422 425.585Z" fill="#FDFFFB"/>
<path d="M485.893 496.476L489.473 505.556L495.681 521.329L500.918 518.479C502.001 517.883 502.531 516.69 502.2 515.541C501.89 514.414 501.426 512.868 500.852 511.123C500.101 508.825 499.106 506.196 497.957 503.722C496.632 500.872 495.063 498.199 493.295 496.432C492.787 495.946 492.102 495.659 491.373 495.615C490.357 495.57 488.81 495.615 487.197 496.056C486.755 496.145 486.313 496.299 485.893 496.476Z" fill="#AD0303"/>
<path d="M485.893 496.476L489.473 505.556L497.957 503.722C496.631 500.872 495.063 498.199 493.295 496.432C492.787 495.946 492.102 495.659 491.373 495.615C490.356 495.57 488.81 495.615 487.197 496.056C486.755 496.145 486.313 496.299 485.893 496.476Z" fill="#FCA713"/>
<path opacity="0.47" d="M487.175 496.034L495.041 513.398L500.829 511.101C499.194 506.174 496.565 499.679 493.273 496.41C492.765 495.924 492.08 495.637 491.351 495.592C490.356 495.57 488.788 495.615 487.175 496.034Z" fill="#E6E7E8"/>
<path d="M485.893 496.476L482.844 497.404L492.831 522.853L495.681 521.307L485.893 496.476Z" fill="#58595B"/>
<path d="M150.225 488.81L149.783 511.631C149.783 511.631 146.557 510.858 145.783 509.952L146.159 490.357C146.137 490.357 147.662 488.744 150.225 488.81Z" fill="#58595B"/>
<path d="M145.761 509.598C145.761 509.598 142.69 501.027 146.115 491.174L145.761 509.598Z" fill="#D1D3D4"/>
<path d="M501.117 532.087L483.352 539.068C482.314 539.488 481.651 540.482 481.717 541.564L482.005 546.115C482.093 547.33 483.993 548.81 485.231 548.457L501.294 542.934C502.509 542.581 503.304 541.454 503.194 540.217L502.443 532.816C502.354 532.242 501.691 531.866 501.117 532.087Z" fill="#0F214F"/>
<path d="M507.215 521.881L499.703 532.64L498.642 546.181H500.012C505.536 546.181 509.999 541.896 509.999 536.616V522.698C510.021 521.24 508.055 520.688 507.215 521.881Z" fill="#0F214F"/>
<path d="M150.865 539.267L144.988 525.681C144.369 524.223 142.182 524.311 141.696 525.813C140.326 529.944 138.492 536.505 138.006 542.912C137.586 548.368 142.049 553.052 147.772 553.052C148.214 553.052 148.545 552.72 148.567 552.301L148.612 547.551L150.865 539.267Z" fill="#0F214F"/>
<path d="M163.658 539.267H148.833C147.838 539.267 146.955 539.841 146.557 540.703L144.259 545.894C143.574 547.418 144.789 549.119 146.535 549.075L160.874 548.633C163.084 548.567 164.852 546.822 164.852 544.701V540.416C164.852 539.775 164.321 539.267 163.658 539.267Z" fill="#0F214F"/>
<path d="M151.661 520.754L147.927 532.463L150.865 539.267H159.195L151.661 520.754Z" fill="#0F214F"/>
<path d="M436.003 420.813C436.003 420.813 354.715 397.64 279.834 415.644C279.834 415.644 353.522 405.217 436.003 420.813Z" fill="#E6E7E8"/>
<path d="M468.151 464.532C467.112 461.483 459.291 439.238 447.116 425.342C451.712 431.174 467.024 465.46 467.024 465.46L468.261 464.886C468.261 464.886 468.217 464.753 468.151 464.532Z" fill="#BCBEC0"/>
<path d="M446.697 424.856C446.741 424.901 446.785 424.945 446.83 424.99C446.785 424.967 446.741 424.901 446.697 424.856Z" fill="#BCBEC0"/>
<path d="M238.406 461.947C239.025 462.743 239.931 463.538 241.013 464.289C243.952 455.254 269.008 417.367 270.245 415.512C270.201 415.556 270.157 415.644 270.09 415.732C267.682 418.98 245.454 449.157 238.605 461.616C238.539 461.727 238.472 461.837 238.406 461.947Z" fill="#D1D3D4"/>
<path d="M246.338 467.051C250.47 468.089 255 466.41 257.231 462.676L279.127 425.917C279.923 424.591 280.033 423.067 279.591 421.719C277.117 424.922 257.01 450.946 246.338 467.051Z" fill="#D1D3D4"/>
<path d="M410.483 475.777C415.432 475.755 463.776 478.118 463.776 478.118L232.728 478.759C232.728 478.759 244.328 477.235 248.26 477.08C308.691 474.716 354.206 475.975 410.483 475.777Z" fill="#E6E7E8"/>
<path d="M238.207 462.257C239.246 463.538 241.102 464.908 243.731 466.388C245.3 467.271 247.023 467.713 248.791 467.713C249.675 467.713 250.558 467.603 251.42 467.382C254.027 466.697 256.215 465.106 257.54 462.853L279.437 426.093C281.027 423.442 280.077 419.996 277.316 418.45C277.227 418.406 277.161 418.361 277.072 418.317L270.51 415.158L270.333 415.445C270.333 415.445 270.267 415.534 270.113 415.732L270.223 415.777L276.785 418.936C276.874 418.98 276.918 419.002 276.984 419.024C279.415 420.394 280.254 423.398 278.862 425.74L256.966 462.5C255.707 464.598 253.696 466.078 251.265 466.697C248.835 467.316 246.316 466.984 244.129 465.791C241.499 464.311 239.688 462.964 238.738 461.727L238.627 461.616C238.561 461.727 238.494 461.837 238.45 461.947L238.207 462.257Z" fill="#422603"/>
<path d="M445.813 429.297C448.531 435.129 453.546 444.23 457.899 451.918C462.252 459.606 465.941 465.858 466.008 465.99L466.184 466.277L468.438 465.195L468.283 464.886C468.283 464.886 468.239 464.753 468.173 464.532L466.494 465.349C464.859 462.544 451.602 439.945 446.498 429.009C446.255 428.501 446.144 427.971 446.144 427.441C446.144 426.624 446.409 425.806 446.962 425.143C446.896 425.055 446.807 424.967 446.741 424.878L446.454 424.657C445.327 425.961 445.084 427.75 445.813 429.297Z" fill="#422603"/>
<g opacity="0.32">
<path opacity="0.32" d="M384.212 470.939L416.714 431.152C420.315 433.914 423.364 437.382 425.596 441.425L427.54 444.959L406.329 470.916H384.212V470.939Z" fill="#D1D3D4"/>
<path opacity="0.32" d="M366.933 429.385L372.148 423C372.258 423 372.369 423 372.501 423L393.536 423.884L367.044 456.314L366.933 429.385Z" fill="#D1D3D4"/>
<path opacity="0.32" d="M373.385 470.939C369.916 470.939 367.11 468.266 367.088 464.93V462.632L398.529 424.127C402.75 424.503 406.793 425.607 410.483 427.352L374.888 470.917H373.385V470.939Z" fill="#D1D3D4"/>
<path opacity="0.32" d="M411.035 470.939L429.418 448.428L434.345 457.419C434.699 458.015 434.964 458.612 435.207 459.208L425.618 470.939H411.035Z" fill="#D1D3D4"/>
</g>
<g opacity="0.32">
<path opacity="0.32" d="M308.691 471.955L346.539 425.629L355.422 425.563C357.3 425.541 358.824 426.999 358.824 428.81V437.647L330.874 471.866L308.691 471.955Z" fill="#D1D3D4"/>
<path opacity="0.32" d="M266.887 472.11C264.213 472.11 262.578 469.327 263.97 467.14L273.471 452.339L295.036 425.94L317.263 425.807L279.481 472.066L266.887 472.11Z" fill="#D1D3D4"/>
<path opacity="0.32" d="M284.695 472.043L322.478 425.784L337.149 425.696L299.322 471.999L284.695 472.043Z" fill="#D1D3D4"/>
<path opacity="0.32" d="M349.058 471.8L335.58 471.844L358.824 443.391V461.263L350.274 471.734C349.876 471.778 349.456 471.8 349.058 471.8Z" fill="#D1D3D4"/>
</g>
<path d="M366.734 464.93L366.58 428.104C366.58 427.839 366.602 427.596 366.624 427.397C366.977 424.613 369.585 422.537 372.523 422.647L396.982 423.685C409.179 424.193 420.249 430.931 425.927 441.27L434.677 457.242C436.621 460.622 436.908 464.223 435.472 467.073C434.367 469.26 432.335 470.762 429.926 471.16C429.484 471.248 429.042 471.27 428.556 471.27H373.407C369.739 471.292 366.734 468.442 366.734 464.93ZM367.331 427.485C367.309 427.662 367.287 427.883 367.287 428.104L367.441 464.93C367.463 468.045 370.115 470.585 373.385 470.585H428.534C428.976 470.585 429.374 470.541 429.772 470.475C431.959 470.121 433.793 468.752 434.787 466.763C436.113 464.113 435.848 460.755 434.014 457.551L425.264 441.579C419.718 431.462 408.87 424.856 396.938 424.348L372.479 423.31C372.413 423.31 372.324 423.31 372.258 423.31C369.783 423.332 367.64 425.121 367.331 427.485Z" fill="#0F214F"/>
<path d="M264.832 471.889C263.086 470.806 262.578 468.641 263.661 466.962L288.849 427.75C289.689 426.425 291.169 425.652 292.782 425.629L355.422 425.232C356.416 425.21 357.366 425.585 358.095 426.27C358.802 426.955 359.2 427.861 359.2 428.811V462.787C359.2 465.261 358.206 467.581 356.416 469.304C354.494 471.138 351.886 472.132 349.08 472.132L266.909 472.463C266.135 472.463 265.428 472.264 264.832 471.889ZM355.422 425.917L292.782 426.314C291.412 426.336 290.175 426.999 289.446 428.104L264.257 467.316C263.285 468.84 263.97 470.541 265.207 471.314C265.694 471.623 266.268 471.778 266.865 471.778L349.036 471.447C351.666 471.447 354.096 470.519 355.864 468.818C357.521 467.227 358.449 465.084 358.449 462.787V428.811C358.449 428.037 358.139 427.308 357.543 426.756C356.968 426.204 356.217 425.917 355.422 425.917Z" fill="#0F214F"/>
<path d="M412.471 518.324C412.471 518.324 407.08 524.444 402.374 531.27C401.512 532.507 400.142 535.556 398.949 538.405C398.463 539.996 397.999 541.586 397.623 542.934C397.049 544.989 395.127 546.424 392.917 546.469C386.532 546.579 374.114 546.402 365.718 546.491C365.718 546.491 390.995 545.475 393.337 542.514C395.657 539.598 396.784 534.451 401.092 529.613C406.506 523.516 412.118 518.391 412.471 518.324Z" fill="#E6E7E8"/>
<path d="M229.391 523.604C229.391 523.604 233.611 528.376 237.279 533.722C237.942 534.694 239.025 537.058 239.953 539.289C240.328 540.526 240.704 541.785 240.991 542.824C241.433 544.436 242.936 545.541 244.681 545.585C249.675 545.673 250.868 545.43 257.43 545.519C257.43 545.519 246.184 544.812 244.35 542.492C242.538 540.217 241.654 536.196 238.296 532.419C234.053 527.669 229.678 523.648 229.391 523.604Z" fill="#E6E7E8"/>
<path d="M477.033 521.771C477.033 521.771 466.935 508.162 450.718 505.534C434.5 502.905 421.088 509.223 418.547 511.83C418.547 511.83 415.255 511.564 423.74 506.086C438.367 496.653 463.798 499.392 473.476 513.398C475.84 516.778 479.066 521.969 477.033 521.771Z" fill="#E6E7E8"/>
<path d="M223.492 517.529C223.492 517.529 213.615 509.731 199.961 510.062C186.306 510.394 175.965 516.336 174.176 518.413C174.176 518.413 170.861 516.646 177.512 512.294C188.339 505.246 205.065 503.523 217.791 511.277C222.917 514.37 225.193 517.419 223.492 517.529Z" fill="#E6E7E8"/>
<path d="M306.393 469.746C306.039 469.768 305.664 469.79 305.266 469.812L306.393 469.746Z" fill="#E6E7E8"/>
<path d="M305.266 469.834L303.962 469.922C304.426 469.878 304.868 469.856 305.266 469.834Z" fill="#E6E7E8"/>
<path d="M146.137 488.788C146.446 488.634 168.652 476.55 240.373 472.043L226.187 468.464C226.187 468.464 186.46 469.149 156.013 480.769C153.296 481.785 148.523 483.553 146.137 488.788Z" fill="#E6E7E8"/>
<path d="M251.531 532.087C250.072 513.663 251.111 488.17 251.442 484.105C251.972 477.522 257.806 470.187 258.866 469.127C259.75 468.221 261.252 465.924 261.849 464.974C267.881 455.563 285.712 426.999 285.888 426.712C287.524 424.127 290.484 422.515 293.622 422.515L356.924 422.426C356.924 422.426 356.924 422.426 356.946 422.426C358.758 422.426 360.194 422.934 361.211 423.928C362.293 424.989 362.846 426.557 362.802 428.501C362.713 432.08 362.868 437.448 363.089 444.871C363.199 448.847 363.332 453.354 363.442 458.391C363.995 482.249 364.547 485.607 366.005 494.62C367.088 501.226 366.116 522.058 366.072 522.919C366.072 536.991 355.024 548.015 340.927 548.015H269.406C260.258 548.015 252.238 540.857 251.531 532.087ZM356.968 423.111L293.666 423.199C290.771 423.199 288.032 424.679 286.529 427.065C286.352 427.353 268.5 455.917 262.468 465.327C261.694 466.52 260.28 468.663 259.396 469.591C258.38 470.629 252.702 477.765 252.171 484.149C251.84 488.214 250.801 513.641 252.26 532.021C252.923 540.46 260.634 547.33 269.428 547.33H340.949C354.648 547.33 365.365 536.616 365.387 522.897C365.387 522.676 366.403 501.248 365.32 494.709C363.84 485.673 363.288 482.293 362.735 458.391C362.625 453.354 362.492 448.847 362.382 444.871C362.161 437.448 362.006 432.058 362.094 428.479C362.139 426.734 361.653 425.32 360.725 424.392C359.841 423.531 358.581 423.111 356.968 423.111Z" fill="#422603"/>
<path d="M262.247 460.997C262.247 460.997 261.805 463.759 262.247 466.056C262.622 468.023 264.721 471.513 264.721 471.513C264.876 471.844 265.384 471.734 265.384 471.38C265.384 469.215 265.031 464.996 262.91 460.843C262.755 460.556 262.247 460.666 262.247 460.997Z" fill="#808285"/>
<path d="M262.291 474.076C262.136 473.766 261.716 473.722 261.495 473.943L261.473 466.741L262.247 466.785L262.291 474.076Z" fill="#808285"/>
<path d="M262.998 475.843C261.694 476.462 260.833 475.843 260.833 475.843L261.407 474.12C261.429 474.054 261.473 473.987 261.517 473.943C261.738 473.722 262.158 473.744 262.313 474.076L262.335 474.098L262.998 475.843Z" fill="#6D6E71"/>
<path d="M262.379 465.305L261.009 466.034C260.678 466.211 260.788 466.719 261.186 466.741L262.711 466.83C262.711 466.83 263.064 466.233 262.379 465.305Z" fill="#6D6E71"/>
<path d="M443.426 438.973L455.711 460.401C456.507 461.793 455.468 463.472 453.811 463.472H444.686C442.874 463.472 441.195 462.5 440.377 460.953L426.723 435.504C426.192 434.532 426.944 433.361 428.093 433.361H433.594C437.66 433.383 441.438 435.526 443.426 438.973Z" fill="#939598"/>
<path d="M445.746 424.635C446.255 424.26 445.614 421.918 443.449 422.978C441.283 424.039 441.394 428.369 441.924 429.274C442.874 430.975 460.837 463.472 461.743 465.106C463.865 468.95 474.095 477.279 477.033 485.43C477.033 485.43 486.777 491.307 487.175 496.034L493.273 496.41C493.273 496.41 492.367 488.589 491.903 486.005C491.594 484.259 489.871 481.034 485.871 478.737C481.894 476.439 475.641 470.695 466.14 466.255C464.218 465.349 449.215 437.404 445.371 430.158C444.642 428.766 444.465 427.154 445.039 425.696C445.238 425.254 445.459 424.856 445.746 424.635Z" fill="#E6E7E8"/>
<path d="M436.246 362.404L429.573 409.083C429.065 412.64 425.64 415.136 421.906 414.65L344.44 404.51C340.728 404.024 338.121 400.733 338.629 397.176L345.302 350.497C345.81 346.94 349.235 344.444 352.969 344.93L430.435 355.07C434.146 355.556 436.754 358.848 436.246 362.404Z" fill="#314123"/>
<path d="M353.742 345.041L352.704 352.242L345.17 351.248L345.28 350.497C345.788 346.94 349.213 344.444 352.947 344.93L353.742 345.041Z" fill="#E0FA78"/>
<path d="M436.246 362.404L436.135 363.155L428.601 362.161L429.639 354.959L430.434 355.07C434.146 355.556 436.754 358.847 436.246 362.404Z" fill="#E0FA78"/>
<path d="M346.274 397.397L345.236 404.598L344.44 404.488C340.728 404.002 338.121 400.71 338.629 397.154L338.74 396.403L346.274 397.397Z" fill="#E0FA78"/>
<path d="M429.683 408.332L429.573 409.083C429.065 412.64 425.64 415.136 421.906 414.65L421.11 414.539L422.149 407.338L429.683 408.332Z" fill="#E0FA78"/>
<path d="M360.724 406.653L357.918 406.277L366.425 346.697L369.253 347.051L360.724 406.653Z" fill="#0F214F"/>
<path d="M408.45 412.883L405.644 412.529L414.151 352.949L416.979 353.302L408.45 412.883Z" fill="#0F214F"/>
<path d="M399.17 377.294L384.388 375.35L385.471 367.816L400.253 369.738L399.17 377.294Z" fill="#ED545C"/>
<path d="M374.004 389.267L370.932 388.869L371.087 387.765L374.158 388.163L374.004 389.267Z" fill="#FFD0A1"/>
<path d="M399.015 399.12L391.856 398.192L392.608 392.89L399.788 393.818L399.015 399.12Z" fill="#ED7D89"/>
<path d="M396.784 385.556L390.575 384.738L391.282 379.79L397.491 380.607L396.784 385.556Z" fill="#FFD0A1"/>
<path d="M425.375 390.173L423.231 389.886L424.027 384.407L426.148 384.694L425.375 390.173Z" fill="#FF9933"/>
<path d="M357.079 373.273L351.864 372.588L352.66 367.043L357.874 367.706L357.079 373.273Z" fill="#ED545C"/>
<path d="M389.05 360.902L375.992 359.179L376.788 353.612L389.846 355.313L389.05 360.902Z" fill="#FF9933"/>
<path d="M374.843 376.653C376.771 376.653 378.334 375.16 378.334 373.317C378.334 371.475 376.771 369.981 374.843 369.981C372.915 369.981 371.352 371.475 371.352 373.317C371.352 375.16 372.915 376.653 374.843 376.653Z" fill="#ED545C"/>
<path d="M383.593 389.046C383.527 389.51 382.82 389.797 382.002 389.687C381.185 389.576 380.588 389.112 380.654 388.649C380.721 388.185 381.428 387.897 382.245 388.008C383.063 388.14 383.659 388.582 383.593 389.046Z" fill="#FFD0A1"/>
<path d="M420.514 377.029C420.425 377.625 419.74 378.045 418.989 377.934C418.238 377.824 417.686 377.272 417.774 376.653C417.862 376.057 418.547 375.637 419.299 375.747C420.05 375.858 420.602 376.432 420.514 377.029Z" fill="#FFD0A1"/>
<path d="M354.228 386.638C354.052 387.92 352.925 388.825 351.754 388.671C350.561 388.516 349.743 387.345 349.942 386.086C350.119 384.805 351.246 383.899 352.417 384.054C353.61 384.186 354.405 385.357 354.228 386.638Z" fill="#ED545C"/>
<path d="M378.754 402.08C378.467 404.157 376.456 405.615 374.291 405.327C372.126 405.04 370.601 403.118 370.888 401.042C371.176 398.965 373.186 397.507 375.351 397.794C377.539 398.082 379.041 400.003 378.754 402.08Z" fill="#ED7D89"/>
<path d="M419.122 397.794C419.011 398.568 418.26 399.12 417.443 399.009C416.625 398.899 416.073 398.192 416.183 397.419C416.294 396.646 417.045 396.093 417.862 396.204C418.68 396.292 419.232 396.999 419.122 397.794Z" fill="#ED7D89"/>
<path d="M402.661 351.447L382.532 348.818C382.422 348.796 382.356 348.708 382.378 348.619L382.687 346.432C382.709 346.344 382.797 346.278 382.886 346.278L403.015 348.906C403.125 348.929 403.191 349.017 403.169 349.105L402.86 351.292C402.86 351.381 402.772 351.447 402.661 351.447Z" fill="#E5FF7A"/>
<path d="M400.01 364.989L396.916 406.653C396.762 408.818 394.795 410.431 392.519 410.276L378.666 409.326C376.412 409.172 374.711 407.316 374.865 405.151L377.959 363.487C378.113 361.344 380.058 359.709 382.334 359.864L396.187 360.814C398.441 360.968 400.164 362.846 400.01 364.989Z" fill="#FFD0A1"/>
<path d="M380.588 409.481L380.036 409.436L383.924 359.974L384.477 360.018L380.588 409.481Z" fill="#0F214F"/>
<path d="M400.01 364.989L395.9 364.702L396.187 360.791C398.441 360.968 400.164 362.846 400.01 364.989Z" fill="#868586"/>
<path d="M382.333 359.864L382.046 363.774L377.959 363.487C378.113 361.344 380.058 359.709 382.333 359.864Z" fill="#868586"/>
<path d="M396.894 406.653C396.74 408.818 394.773 410.431 392.497 410.276L392.784 406.366L396.894 406.653Z" fill="#868586"/>
<path d="M378.953 405.438L378.666 409.348C376.412 409.193 374.711 407.338 374.865 405.173L378.953 405.438Z" fill="#868586"/>
<path d="M392.851 359.378L386.399 358.936C386.377 358.936 386.333 358.958 386.333 358.98L386.244 360.062C386.244 360.085 386.266 360.107 386.288 360.129L392.74 360.57C392.762 360.57 392.807 360.548 392.807 360.526L392.895 359.444C392.895 359.422 392.873 359.378 392.851 359.378Z" fill="#0F214F"/>
<path d="M431.031 380.939L423.872 412.507C423.32 414.672 421.044 416.02 418.768 415.534L400.297 411.69C398.021 411.226 396.54 409.105 396.96 406.896L404.119 375.328C404.627 373.096 406.925 371.683 409.245 372.169L427.717 376.012C430.059 376.521 431.539 378.73 431.031 380.939Z" fill="#742421"/>
<path d="M409.267 372.19L408.361 376.233L404.141 375.35C404.649 373.118 406.947 371.704 409.267 372.19Z" fill="#FAFF69"/>
<path d="M431.031 380.939L426.811 380.055L427.717 376.012C430.059 376.52 431.539 378.73 431.031 380.939Z" fill="#FAFF69"/>
<path d="M401.202 407.802L400.319 411.712C398.043 411.248 396.563 409.127 396.983 406.918L401.202 407.802Z" fill="#FAFF69"/>
<path d="M423.872 412.507C423.32 414.672 421.044 416.02 418.768 415.534L419.652 411.624L423.872 412.507Z" fill="#FAFF69"/>
<path d="M405.732 412.839L405.202 412.728L414.172 373.207L414.703 373.317L405.732 412.839Z" fill="#0F214F"/>
<path d="M422.083 374.864L416.669 373.737C416.625 373.737 416.603 373.693 416.603 373.649L416.824 372.677C416.824 372.632 416.868 372.61 416.912 372.61L422.326 373.737C422.37 373.737 422.392 373.781 422.392 373.825L422.171 374.797C422.171 374.842 422.127 374.864 422.083 374.864Z" fill="#FAFF69"/>
<path d="M371.575 379.105L373.033 403.428C373.144 405.261 371.686 406.83 369.763 406.94L285.006 411.601C283.416 411.69 282.024 410.718 281.537 409.348C281.427 409.083 281.361 408.774 281.361 408.487L279.902 384.164C279.792 382.33 281.25 380.762 283.172 380.652L367.929 375.99C369.83 375.88 371.465 377.294 371.575 379.105Z" fill="#314123"/>
<g opacity="0.5">
<path opacity="0.5" d="M372.744 398.435L372.855 400.335L281.16 405.372L281.05 403.472L372.744 398.435Z" fill="white"/>
<path opacity="0.5" d="M372.678 397.573L372.722 398.059L281.028 403.096L281.005 402.61L372.678 397.573Z" fill="white"/>
<path opacity="0.5" d="M373.054 403.516C373.054 403.693 373.054 403.847 373.01 404.002L281.425 409.039C281.403 408.862 281.359 408.73 281.359 408.553L373.054 403.516Z" fill="white"/>
<path opacity="0.5" d="M372.899 401.219L373.031 403.14L281.337 408.177L281.226 406.255L372.899 401.219Z" fill="white"/>
</g>
<g opacity="0.5">
<path opacity="0.5" d="M371.883 384.054L371.993 385.953L280.298 390.99L280.188 389.09L371.883 384.054Z" fill="white"/>
<path opacity="0.5" d="M371.816 383.17L371.86 383.678L280.166 388.715L280.144 388.229L371.816 383.17Z" fill="white"/>
</g>
<g opacity="0.5">
<path opacity="0.5" d="M371.573 379.017L279.879 384.054C279.879 383.877 279.879 383.722 279.923 383.568L371.485 378.531C371.529 378.685 371.573 378.84 371.573 379.017Z" fill="white"/>
<path opacity="0.5" d="M371.375 378.155L280.012 383.192C280.144 382.573 280.498 382.021 280.962 381.624C281.139 381.425 281.315 381.292 281.514 381.182L369.608 376.322C369.851 376.41 370.094 376.565 370.292 376.763C370.447 376.852 370.624 377.006 370.712 377.161C370.977 377.404 371.154 377.691 371.265 377.978C371.309 378.023 371.331 378.089 371.375 378.155Z" fill="white"/>
</g>
<g opacity="0.5">
<path opacity="0.5" d="M283.856 380.629L285.712 411.579L285.027 411.624C284.563 411.646 284.121 411.579 283.701 411.447L281.867 380.983C282.265 380.806 282.707 380.696 283.171 380.674L283.856 380.629Z" fill="white"/>
<path opacity="0.5" d="M284.739 380.585L286.595 411.535L286.087 411.557L284.231 380.607L284.739 380.585Z" fill="white"/>
<path opacity="0.5" d="M280.961 381.624L282.729 410.939C282.176 410.541 281.757 409.989 281.536 409.37C281.514 409.26 281.447 409.171 281.425 409.061C281.403 408.884 281.359 408.752 281.359 408.575L279.879 384.076C279.879 383.899 279.879 383.744 279.923 383.59C279.945 383.435 279.945 383.303 280.011 383.192C280.144 382.551 280.497 381.999 280.961 381.624Z" fill="white"/>
</g>
<g opacity="0.5">
<path opacity="0.5" d="M303.454 379.547L305.443 379.436L307.299 410.386L305.31 410.497L303.454 379.547Z" fill="white"/>
<path opacity="0.5" d="M305.84 379.414L306.349 379.392L308.205 410.342L307.696 410.364L305.84 379.414Z" fill="white"/>
<path opacity="0.5" d="M299.632 379.768L300.14 379.724L301.996 410.696L301.488 410.718L299.632 379.768Z" fill="white"/>
<path opacity="0.5" d="M300.537 379.702L302.526 379.591L304.404 410.563L302.393 410.673L300.537 379.702Z" fill="white"/>
</g>
<path opacity="0.5" d="M292.097 380.166H292.252L294.108 411.115L293.953 411.137L292.097 380.166Z" fill="white"/>
<path opacity="0.5" d="M313.706 378.995L313.861 378.972L315.717 409.922L315.562 409.945L313.706 378.995Z" fill="white"/>
<g opacity="0.5">
<path opacity="0.5" d="M325.063 378.354L327.029 378.244L328.885 409.193L326.919 409.304L325.063 378.354Z" fill="white"/>
<path opacity="0.5" d="M327.427 378.222L327.935 378.2L329.813 409.149L329.305 409.171L327.427 378.222Z" fill="white"/>
<path opacity="0.5" d="M321.218 378.575L321.727 378.553L323.583 409.503L323.074 409.525L321.218 378.575Z" fill="white"/>
<path opacity="0.5" d="M322.124 378.531L324.135 378.42L325.991 409.37L323.98 409.481L322.124 378.531Z" fill="white"/>
</g>
<path opacity="0.5" d="M335.315 377.802L335.47 377.78L337.326 408.73L337.171 408.752L335.315 377.802Z" fill="white"/>
<g opacity="0.5">
<path opacity="0.5" d="M346.65 377.161L348.66 377.051L350.516 408.023L348.506 408.133L346.65 377.161Z" fill="white"/>
<path opacity="0.5" d="M349.036 377.029L349.544 377.007L351.4 407.956L350.892 408.001L349.036 377.029Z" fill="white"/>
<path opacity="0.5" d="M342.85 377.382L343.358 377.36L345.214 408.31L344.706 408.332L342.85 377.382Z" fill="white"/>
<path opacity="0.5" d="M343.755 377.338L345.722 377.227L347.578 408.177L345.611 408.288L343.755 377.338Z" fill="white"/>
</g>
<path opacity="0.5" d="M356.902 376.609L357.057 376.587L358.935 407.559H358.78L356.902 376.609Z" fill="white"/>
<g opacity="0.5">
<path opacity="0.5" d="M369.607 376.344C369.85 376.432 370.093 376.587 370.292 376.786L372.037 405.946C371.529 406.454 370.866 406.83 370.093 406.918L368.237 376.012C368.745 376.012 369.187 376.123 369.607 376.344Z" fill="white"/>
<path opacity="0.5" d="M370.734 377.161C370.999 377.404 371.176 377.691 371.286 377.978L372.877 404.598C372.788 404.908 372.656 405.217 372.413 405.482L370.734 377.161Z" fill="white"/>
<path opacity="0.5" d="M364.437 376.189L364.945 376.167L366.801 407.117L366.293 407.139L364.437 376.189Z" fill="white"/>
<path opacity="0.5" d="M365.342 376.145L367.331 376.035L369.209 406.984L367.198 407.095L365.342 376.145Z" fill="white"/>
</g>
<path d="M285.933 380.497L286.286 386.484L280.055 386.837L279.901 384.164C279.79 382.33 281.248 380.762 283.171 380.652L285.933 380.497Z" fill="#BE7F30"/>
<path d="M371.573 379.105L371.728 381.778L365.497 382.132L365.143 376.145L367.927 375.99C369.828 375.88 371.463 377.294 371.573 379.105Z" fill="#BE7F30"/>
<path d="M287.567 405.482L287.921 411.447L285.004 411.602C283.414 411.69 282.022 410.718 281.536 409.348L281.315 405.813L287.567 405.482Z" fill="#BE7F30"/>
<path d="M372.877 400.777L373.031 403.428C373.142 405.261 371.684 406.83 369.761 406.94L367.11 407.095L366.756 401.13L372.877 400.777Z" fill="#BE7F30"/>
<path d="M296.052 397.662L295.787 393.288C295.787 393.199 295.853 393.133 295.92 393.133L303.012 392.735C303.1 392.735 303.167 392.802 303.167 392.868L303.432 397.242C303.432 397.33 303.366 397.397 303.299 397.397L296.207 397.794C296.118 397.794 296.052 397.75 296.052 397.662Z" fill="#D9F0F8"/>
<path d="M296.892 396.292L296.803 394.569L303.255 394.216L303.344 395.939L296.892 396.292Z" fill="#0F214F"/>
<path d="M296.98 396.182L296.892 394.68L303.255 394.326L303.343 395.828L296.98 396.182Z" fill="#CED9DF"/>
<path d="M298.195 395.475V395.232L298.991 395.188L299.013 395.431L298.195 395.475Z" fill="#0F214F"/>
<path d="M357.476 394.282L357.211 389.908C357.211 389.819 357.145 389.775 357.057 389.775L349.964 390.173C349.876 390.173 349.81 390.239 349.832 390.328L350.097 394.702C350.097 394.79 350.163 394.834 350.251 394.834L357.344 394.436C357.432 394.436 357.476 394.37 357.476 394.282Z" fill="#D9F0F8"/>
<path d="M356.46 393L356.372 391.299L349.92 391.653L350.008 393.354L356.46 393Z" fill="#0F214F"/>
<path d="M356.372 392.912L356.283 391.41L349.92 391.763L350.008 393.244L356.372 392.912Z" fill="#CED9DF"/>
<path d="M355.068 392.36V392.095L354.251 392.139L354.273 392.404L355.068 392.36Z" fill="#0F214F"/>
<path d="M335.58 396.336L317.374 397.33L317.263 395.475L335.47 394.481L335.58 396.336Z" fill="#9D7028"/>
<path d="M341.435 396.557L335.757 396.336L335.646 394.481L341.281 393.707L341.435 396.557Z" fill="#462A0F"/>
<path d="M311.585 398.192L317.197 397.353L317.087 395.497L311.43 395.342L311.585 398.192Z" fill="#462A0F"/>
<path d="M335.757 396.336H335.602L335.47 394.481L335.647 394.459L335.757 396.336Z" fill="#7A571F"/>
<path d="M317.374 397.353H317.197L317.087 395.497L317.263 395.475L317.374 397.353Z" fill="#7A571F"/>
<path d="M372.037 386.948L280.365 392.006L280.32 391.476L372.015 386.417L372.037 386.948Z" fill="#0F214F"/>
<path d="M363.045 357.412L364.017 374.864C364.061 375.526 363.509 376.101 362.824 376.145L296.251 379.525C295.544 379.569 294.97 379.039 294.925 378.376L293.953 360.924C293.909 360.261 294.439 359.687 295.146 359.643L361.719 356.263C362.426 356.219 363.022 356.727 363.045 357.412Z" fill="#462A0F"/>
<path d="M297.974 359.488L298.019 360.283C298.085 361.653 296.693 362.846 294.881 362.934C294.594 362.956 294.329 362.934 294.064 362.89L293.953 360.924C293.909 360.261 294.439 359.687 295.146 359.643L297.974 359.488Z" fill="#704318"/>
<path d="M363.045 357.412L363.155 359.378C362.956 359.422 362.735 359.444 362.514 359.466C360.702 359.554 359.156 358.516 359.089 357.146L359.045 356.395L361.697 356.263C362.426 356.219 363.022 356.727 363.045 357.412Z" fill="#704318"/>
<path d="M363.442 364.26L294.329 367.772L294.285 366.999L363.398 363.509L363.442 364.26Z" fill="#0F214F"/>
<path d="M324.798 366.712L320.887 366.911C320.379 366.933 319.981 367.352 320.003 367.861C320.025 368.347 320.467 368.744 320.998 368.7L324.908 368.501C325.417 368.479 325.814 368.059 325.792 367.551C325.748 367.065 325.306 366.69 324.798 366.712Z" fill="#0F214F"/>
<path d="M336.287 366.138L332.376 366.336C331.868 366.358 331.471 366.778 331.493 367.286C331.515 367.772 331.957 368.17 332.487 368.126L336.398 367.927C336.906 367.905 337.304 367.485 337.282 366.977C337.259 366.491 336.818 366.093 336.287 366.138Z" fill="#0F214F"/>
<path d="M332.288 371.02L325.328 371.373C323.538 371.461 322.279 370.534 322.191 369.031L322.124 367.706L323.737 367.618L323.804 368.943C323.848 369.76 324.732 369.849 325.24 369.827L332.2 369.473C332.708 369.451 333.592 369.274 333.548 368.457L333.481 367.132L335.094 367.043L335.16 368.369C335.227 369.871 334.1 370.931 332.288 371.02Z" fill="#0F214F"/>
<path d="M349.103 362.669L346.65 362.802C346.407 362.824 346.208 363.023 346.23 363.244L346.451 367.242C346.473 367.485 346.672 367.662 346.915 367.64L349.368 367.507C349.611 367.485 349.81 367.286 349.788 367.065L349.567 363.067C349.567 362.824 349.346 362.647 349.103 362.669Z" fill="#D9F0F8"/>
<path d="M348.727 366.933L347.512 366.999L347.268 362.758L348.484 362.691L348.727 366.933Z" fill="#0F214F"/>
<path d="M348.638 366.889L347.578 366.933L347.335 362.758L348.417 362.691L348.638 366.889Z" fill="#CED9DF"/>
<path d="M348.152 366.071L347.976 366.093L347.954 365.563L348.13 365.541L348.152 366.071Z" fill="#0F214F"/>
<path d="M309.464 364.68L307.011 364.812C306.768 364.834 306.569 365.033 306.591 365.254L306.812 369.252C306.835 369.495 307.033 369.672 307.276 369.65L309.729 369.518C309.972 369.495 310.171 369.297 310.149 369.076L309.928 365.077C309.928 364.856 309.707 364.657 309.464 364.68Z" fill="#D9F0F8"/>
<path d="M309.088 368.965L307.873 369.01L307.63 364.768L308.845 364.702L309.088 368.965Z" fill="#0F214F"/>
<path d="M309 368.899L307.939 368.943L307.696 364.768L308.779 364.724L309 368.899Z" fill="#CED9DF"/>
<path d="M308.514 368.104H308.337L308.315 367.573L308.492 367.551L308.514 368.104Z" fill="#0F214F"/>
<path d="M317.374 378.443L314.435 378.597L313.331 358.715L316.269 358.56L317.374 378.443Z" fill="#0F214F"/>
<path d="M343.512 377.117L340.574 377.249L339.469 357.389L342.408 357.235L343.512 377.117Z" fill="#0F214F"/>
</svg>
