<svg width="80" height="81" viewBox="0 0 80 81" fill="none" xmlns="http://www.w3.org/2000/svg">
<g filter="url(#filter0_d)">
<rect x="4" y="3.18774" width="72" height="72.1439" rx="10" fill="white"/>
</g>
<path d="M57.0025 45.769L48.5701 32.4072L52.1304 26.8456C52.9215 25.6116 53.2364 24.1618 52.9743 22.9663C52.7927 22.1417 52.3605 21.4908 51.7229 21.0833L51.5258 20.9559C49.8962 19.9158 47.5241 20.8133 46.1219 23.0002L42.7757 28.2304L24.164 26.4927C23.9069 26.4693 23.6594 26.5898 23.5209 26.8071L22.1421 28.9633C22.0284 29.1407 22.0028 29.3603 22.0715 29.5588C22.1403 29.7573 22.2966 29.914 22.4955 29.9832L38.1667 35.432L32.2522 44.6744L23.0117 45.5723C22.7706 45.5962 22.5597 45.7442 22.4566 45.9638L21.7259 47.5122C21.6342 47.7066 21.6388 47.933 21.7378 48.1232C21.8373 48.3139 22.0202 48.4473 22.2324 48.4831L32.8898 50.2946L38.9986 59.2129C39.1201 59.3903 39.3172 59.5007 39.5322 59.5108C39.5437 59.5113 39.5547 59.5117 39.5661 59.5117C39.7687 59.5117 39.9617 59.4224 40.0923 59.2665L41.1943 57.9551C41.3501 57.7694 41.3969 57.5155 41.3171 57.2863L38.2607 48.5188L44.0193 39.519L54.5845 48.8076C54.7349 48.9396 54.9348 49.0006 55.1341 48.9717C55.3326 48.9437 55.5086 48.8305 55.6173 48.6623L57.0002 46.5074C57.1437 46.2828 57.1446 45.995 57.0025 45.769ZM54.8912 47.2468L44.3255 37.9577C44.1752 37.8252 43.9767 37.7661 43.7754 37.7931C43.577 37.8211 43.4009 37.9348 43.2923 38.1035L36.9217 48.0591C36.808 48.2369 36.7824 48.4569 36.8516 48.6563L39.8897 57.3702L39.6216 57.6892L33.8959 49.3302C33.8446 49.2554 33.7791 49.1913 33.703 49.1418L33.6049 49.0781C33.5265 49.0272 33.4385 48.9928 33.3463 48.9772L23.3564 47.2794L23.5338 46.903L32.7184 46.011C32.9283 45.9904 33.1176 45.8749 33.2313 45.697L39.7949 35.4394C39.9081 35.262 39.9342 35.0424 39.8654 34.8435C39.7967 34.6445 39.6404 34.4882 39.4414 34.419L23.7694 28.9702L24.4533 27.9008L43.065 29.6385C43.3244 29.6633 43.5701 29.5409 43.7081 29.3245L47.2798 23.7419C48.2327 22.2549 49.8375 21.5082 50.7777 22.1096L50.983 22.2425C51.391 22.5029 51.5606 22.9402 51.6307 23.2611C51.8168 24.1077 51.5707 25.1702 50.972 26.104L47.1762 32.034C47.0327 32.2586 47.0318 32.5461 47.1739 32.7716L55.6058 46.1334L54.8912 47.2468Z" fill="#FBB667"/>
<defs>
<filter id="filter0_d" x="0" y="0.187744" width="80" height="80.1439" filterUnits="userSpaceOnUse" color-interpolation-filters="sRGB">
<feFlood flood-opacity="0" result="BackgroundImageFix"/>
<feColorMatrix in="SourceAlpha" type="matrix" values="0 0 0 0 0 0 0 0 0 0 0 0 0 0 0 0 0 0 127 0" result="hardAlpha"/>
<feOffset dy="1"/>
<feGaussianBlur stdDeviation="2"/>
<feComposite in2="hardAlpha" operator="out"/>
<feColorMatrix type="matrix" values="0 0 0 0 0 0 0 0 0 0 0 0 0 0 0 0 0 0 0.25 0"/>
<feBlend mode="normal" in2="BackgroundImageFix" result="effect1_dropShadow"/>
<feBlend mode="normal" in="SourceGraphic" in2="effect1_dropShadow" result="shape"/>
</filter>
</defs>
</svg>
