<svg width="80" height="81" viewBox="0 0 80 81" fill="none" xmlns="http://www.w3.org/2000/svg">
<g filter="url(#filter0_d)">
<rect x="4" y="3.07739" width="72" height="72.1439" rx="10" fill="white"/>
</g>
<g clip-path="url(#clip0)">
<path d="M53.2812 31.7119C52.4823 32.5109 51.8442 32.7744 50.625 32.7744C48.1866 32.7744 46.375 30.9629 46.375 28.5244C46.375 27.3052 46.6385 26.6672 47.4375 25.8682L44.25 22.6807L23.5312 43.3994L26.7188 46.5869C27.5177 45.7879 28.1558 45.5244 29.375 45.5244C31.8134 45.5244 33.625 47.336 33.625 49.7744C33.625 50.9936 33.3615 51.6317 32.5625 52.4307L35.75 55.6182L56.4688 34.8994L53.2812 31.7119Z" stroke="#FBB667" stroke-width="2" stroke-miterlimit="10"/>
<path d="M36.8125 30.1182L38.9375 32.2432" stroke="#FBB667" stroke-width="2" stroke-miterlimit="10"/>
<path d="M46.9062 40.2119L49.0312 42.3369" stroke="#FBB667" stroke-width="2" stroke-miterlimit="10"/>
<path d="M40 33.3057L42.125 35.4307" stroke="#FBB667" stroke-width="2" stroke-miterlimit="10"/>
<path d="M43.7188 37.0244L45.8438 39.1494" stroke="#FBB667" stroke-width="2" stroke-miterlimit="10"/>
</g>
<defs>
<filter id="filter0_d" x="0" y="0.0773926" width="80" height="80.1439" filterUnits="userSpaceOnUse" color-interpolation-filters="sRGB">
<feFlood flood-opacity="0" result="BackgroundImageFix"/>
<feColorMatrix in="SourceAlpha" type="matrix" values="0 0 0 0 0 0 0 0 0 0 0 0 0 0 0 0 0 0 127 0" result="hardAlpha"/>
<feOffset dy="1"/>
<feGaussianBlur stdDeviation="2"/>
<feComposite in2="hardAlpha" operator="out"/>
<feColorMatrix type="matrix" values="0 0 0 0 0 0 0 0 0 0 0 0 0 0 0 0 0 0 0.25 0"/>
<feBlend mode="normal" in2="BackgroundImageFix" result="effect1_dropShadow"/>
<feBlend mode="normal" in="SourceGraphic" in2="effect1_dropShadow" result="shape"/>
</filter>
<clipPath id="clip0">
<rect width="34" height="34" fill="white" transform="translate(23 22.1494)"/>
</clipPath>
</defs>
</svg>
